<svg width="1440" height="1024" viewBox="0 0 1440 1024" fill="none" xmlns="http://www.w3.org/2000/svg">
<g clip-path="url(#clip0_2_2)">
<path d="M691.207 761.612H930.565C940.014 761.612 940.03 746.93 930.565 746.93H691.207C681.758 746.93 681.743 761.612 691.207 761.612Z" fill="#E6E6E6"/>
<path d="M388.031 443.576H626.583C628.839 443.579 631 444.475 632.595 446.07C634.19 447.664 635.087 449.825 635.089 452.08V725.567C635.087 727.821 634.19 729.983 632.595 731.577C631 733.171 628.838 734.068 626.583 734.071H400.995C400.998 733.512 401.002 732.762 401.005 731.927C401.013 730.163 401.021 728.018 401.021 726.498V589.357C401.394 589.333 401.747 589.174 402.014 588.908C402.303 588.619 402.465 588.229 402.466 587.821V587.818L402.466 564.963L402.466 564.96C402.465 564.552 402.302 564.162 402.014 563.873C401.748 563.607 401.394 563.448 401.021 563.424V521.47V521.392L401.008 521.315C399.143 509.438 391.522 499.296 379.525 498.501V452.079C379.528 449.825 380.425 447.664 382.02 446.07C383.614 444.475 385.776 443.579 388.031 443.576Z" stroke="#CD6505" stroke-width="2"/>
<path d="M653.588 431.79V431.789C653.583 426.342 651.416 421.118 647.563 417.266C643.71 413.414 638.485 411.248 633.036 411.243H633.035H562.789C558.923 411.243 555.789 408.109 555.789 404.243V294.684C555.789 290.818 558.923 287.684 562.789 287.684H1061.81C1065.67 287.684 1068.81 290.818 1068.81 294.684V537.932C1068.81 541.798 1065.67 544.932 1061.81 544.932H660.588C656.722 544.932 653.588 541.798 653.588 537.932V431.79Z" stroke="#CD6505" stroke-width="2"/>
<path d="M1095.57 582.479H653.054V580.673H1093.76V275.356C1093.76 271.764 1092.33 268.32 1089.79 265.78C1087.25 263.24 1083.8 261.811 1080.21 261.807H538.986C535.392 261.811 531.947 263.24 529.407 265.78C526.866 268.32 525.436 271.764 525.432 275.356V411.072H523.625V275.356C523.63 271.285 525.25 267.382 528.129 264.503C531.009 261.624 534.913 260.005 538.986 260H1080.21C1084.28 260.005 1088.18 261.624 1091.06 264.503C1093.94 267.382 1095.56 271.285 1095.57 275.356V582.479Z" fill="#CD6505"/>
<path d="M1053.64 637.581H653.054V635.774H1053.64C1064.28 635.762 1074.47 631.532 1082 624.013C1089.52 616.493 1093.75 606.297 1093.76 595.663V582.479H653.054V580.673H1095.57V595.663C1095.56 606.776 1091.13 617.431 1083.27 625.289C1075.41 633.148 1064.76 637.568 1053.64 637.581V637.581Z" fill="#CD6505"/>
<path d="M934.753 726.105C912.422 704.667 897.731 676.697 893.009 637.581H728.425C726.751 674.176 712.154 701.622 685.823 726.008L683.04 726.105C710.207 701.491 725.171 673.845 726.657 636.641L726.691 635.774H894.616L894.709 636.573C899.347 676.351 914.345 704.503 937.226 725.96L934.753 726.105Z" fill="#CD6505"/>
<path d="M632.598 763.476H379.066V761.67H632.598C637.782 761.664 642.752 759.603 646.417 755.938C650.083 752.274 652.145 747.305 652.15 742.123V432.205C652.145 427.023 650.083 422.054 646.417 418.39C642.752 414.725 637.782 412.664 632.598 412.658H379.066C373.883 412.664 368.913 414.725 365.248 418.39C361.582 422.054 359.52 427.023 359.515 432.205V499.087H357.708V432.205C357.714 426.544 359.966 421.116 363.97 417.113C367.975 413.11 373.404 410.858 379.066 410.852H632.598C638.261 410.858 643.69 413.11 647.695 417.113C651.699 421.116 653.951 426.544 653.957 432.205V742.123C653.951 747.784 651.699 753.212 647.695 757.215C643.69 761.218 638.261 763.47 632.598 763.476V763.476Z" fill="#CD6505"/>
<path d="M505.832 433.708C504.621 433.708 503.436 433.348 502.428 432.675C501.421 432.002 500.636 431.046 500.172 429.926C499.708 428.807 499.587 427.576 499.823 426.387C500.06 425.199 500.643 424.108 501.5 423.251C502.357 422.395 503.449 421.811 504.637 421.575C505.826 421.338 507.057 421.46 508.177 421.923C509.297 422.387 510.253 423.172 510.927 424.179C511.6 425.186 511.959 426.371 511.959 427.582C511.958 429.206 511.311 430.763 510.163 431.912C509.014 433.06 507.457 433.706 505.832 433.708V433.708ZM505.832 422.873C504.901 422.873 503.99 423.149 503.215 423.667C502.441 424.184 501.837 424.92 501.48 425.78C501.124 426.641 501.03 427.588 501.212 428.501C501.394 429.415 501.843 430.254 502.501 430.913C503.16 431.571 504 432.02 504.913 432.201C505.827 432.383 506.774 432.29 507.635 431.933C508.496 431.577 509.232 430.973 509.749 430.199C510.267 429.424 510.543 428.514 510.543 427.582C510.542 426.334 510.045 425.137 509.162 424.254C508.279 423.371 507.081 422.874 505.832 422.873V422.873Z" fill="#CD6505"/>
<path d="M505.832 756.552C504.286 756.552 502.775 756.094 501.489 755.235C500.203 754.376 499.201 753.156 498.61 751.727C498.018 750.299 497.863 748.728 498.165 747.212C498.466 745.695 499.211 744.303 500.304 743.21C501.398 742.117 502.791 741.372 504.307 741.071C505.824 740.769 507.396 740.924 508.824 741.515C510.253 742.107 511.474 743.109 512.333 744.394C513.192 745.679 513.65 747.19 513.65 748.736C513.648 750.808 512.824 752.795 511.358 754.26C509.892 755.726 507.905 756.55 505.832 756.552V756.552ZM505.832 742.727C504.644 742.727 503.481 743.079 502.493 743.74C501.504 744.4 500.734 745.339 500.279 746.437C499.824 747.535 499.705 748.743 499.937 749.909C500.169 751.074 500.741 752.145 501.582 752.986C502.423 753.826 503.494 754.398 504.66 754.63C505.826 754.862 507.034 754.743 508.133 754.288C509.231 753.833 510.17 753.063 510.83 752.075C511.491 751.086 511.843 749.925 511.843 748.736C511.841 747.143 511.208 745.616 510.081 744.489C508.954 743.362 507.426 742.729 505.832 742.727V742.727Z" fill="#CD6505"/>
<path d="M376.52 764H292.594C286.276 763.993 280.219 761.481 275.751 757.014C271.284 752.548 268.771 746.492 268.764 740.175V522.912C268.771 516.595 271.284 510.54 275.751 506.073C280.219 501.607 286.276 499.095 292.594 499.087H376.52C382.839 499.095 388.896 501.607 393.363 506.073C397.831 510.54 400.344 516.595 400.351 522.912V561.792C400.779 561.971 401.145 562.272 401.402 562.658C401.659 563.043 401.797 563.497 401.797 563.96L401.797 589.259C401.797 589.723 401.659 590.176 401.402 590.562C401.145 590.947 400.779 591.248 400.351 591.427V740.176C400.344 746.492 397.831 752.548 393.363 757.014C388.896 761.481 382.838 763.993 376.52 764V764ZM292.594 500.894C286.755 500.901 281.157 503.222 277.029 507.35C272.9 511.478 270.577 517.074 270.571 522.912V740.175C270.577 746.013 272.9 751.609 277.028 755.737C281.157 759.865 286.755 762.187 292.594 762.193H376.52C382.359 762.187 387.957 759.865 392.086 755.737C396.215 751.61 398.537 746.013 398.544 740.176V589.801H399.448C399.591 589.801 399.729 589.744 399.831 589.642C399.933 589.541 399.99 589.403 399.99 589.259L399.99 563.96C399.99 563.816 399.933 563.679 399.831 563.577C399.729 563.475 399.591 563.418 399.448 563.418H398.544V522.912C398.537 517.074 396.215 511.478 392.086 507.35C387.957 503.222 382.359 500.901 376.52 500.894H292.594Z" fill="#CD6505"/>
<path d="M367.548 509.906C367.667 508.741 367.548 507.567 367.201 506.454H377.445C381.854 506.454 386.082 508.205 389.199 511.321C392.316 514.437 394.067 518.664 394.067 523.071V740.016C394.067 744.423 392.316 748.65 389.199 751.766C386.082 754.883 381.854 756.633 377.446 756.633H293.115C288.707 756.633 284.479 754.883 281.362 751.766C278.245 748.65 276.493 744.423 276.493 740.016V523.071C276.493 518.664 278.245 514.437 281.362 511.321C284.479 508.205 288.707 506.454 293.115 506.454H302.637C302.289 507.567 302.17 508.741 302.29 509.906C302.434 511.314 302.923 512.665 303.713 513.84C304.503 515.015 305.569 515.978 306.819 516.644C308.069 517.309 309.463 517.657 310.879 517.658H358.959C360.375 517.657 361.769 517.309 363.019 516.644C364.268 515.978 365.335 515.015 366.125 513.84C366.915 512.665 367.403 511.314 367.548 509.906Z" stroke="#CD6505"/>
<path d="M1281.92 763.646H158.076C157.934 763.647 157.794 763.619 157.663 763.566C157.532 763.512 157.413 763.433 157.313 763.333C157.212 763.233 157.133 763.114 157.079 762.983C157.024 762.853 156.996 762.712 156.996 762.571C156.996 762.429 157.024 762.289 157.079 762.158C157.133 762.028 157.212 761.909 157.313 761.809C157.413 761.709 157.532 761.63 157.663 761.576C157.794 761.522 157.934 761.495 158.076 761.495H1281.92C1282.07 761.495 1282.21 761.522 1282.34 761.576C1282.47 761.63 1282.59 761.709 1282.69 761.809C1282.79 761.909 1282.87 762.028 1282.92 762.158C1282.98 762.289 1283 762.429 1283 762.571C1283 762.712 1282.98 762.853 1282.92 762.983C1282.87 763.114 1282.79 763.233 1282.69 763.333C1282.59 763.433 1282.47 763.512 1282.34 763.566C1282.21 763.619 1282.07 763.647 1281.92 763.646V763.646Z" fill="#CD6505"/>
<path d="M935.311 763.14H685.029C682.536 763.142 680.067 762.653 677.763 761.7C675.459 760.748 673.366 759.351 671.602 757.589C669.839 755.828 668.44 753.736 667.485 751.433C666.531 749.131 666.04 746.663 666.04 744.171C666.04 741.678 666.531 739.21 667.485 736.908C668.44 734.605 669.839 732.514 671.602 730.752C673.366 728.99 675.459 727.593 677.763 726.641C680.067 725.688 682.536 725.199 685.029 725.201H935.311C940.341 725.205 945.163 727.206 948.718 730.763C952.273 734.32 954.27 739.142 954.27 744.171C954.27 749.199 952.273 754.022 948.718 757.579C945.163 761.136 940.341 763.136 935.311 763.14ZM685.029 727.008C680.476 727.008 676.109 728.816 672.89 732.035C669.67 735.253 667.862 739.619 667.862 744.171C667.862 748.722 669.67 753.088 672.89 756.306C676.109 759.525 680.476 761.333 685.029 761.333H935.311C939.864 761.333 944.23 759.525 947.45 756.306C950.669 753.088 952.478 748.722 952.478 744.171C952.478 739.619 950.669 735.253 947.45 732.035C944.23 728.816 939.864 727.008 935.311 727.008H685.029Z" fill="#CD6505"/>
<path d="M1117.04 618.709L1124.05 633.361L1183.91 613.304L1173.57 591.679L1117.04 618.709Z" fill="#FFB8B8"/>
<path d="M1123.96 668.124L1101.93 622.077L1119.73 613.567L1133.89 643.184C1135.98 647.542 1136.25 652.549 1134.64 657.104C1133.03 661.659 1129.68 665.389 1125.32 667.473L1123.96 668.124V668.124Z" fill="#2F2E41"/>
<path d="M1102.93 749.55L1119.16 749.002L1119.85 685.818L1100.82 686.941L1102.93 749.55Z" fill="#FFB8B8"/>
<path d="M1150.67 763.884H1099.61V744.163H1132.45C1137.28 744.163 1141.92 746.082 1145.33 749.497C1148.75 752.913 1150.67 757.545 1150.67 762.376V763.884V763.884Z" fill="#2F2E41"/>
<path d="M1104.26 740.058C1102.9 740.058 1101.58 739.602 1100.51 738.762C1099.44 737.922 1098.68 736.748 1098.35 735.426C1089.46 699.7 1056.36 519.693 1085.63 484.339L1085.88 484.031L1086.27 483.933C1088.33 483.413 1127.05 471.426 1149.78 490.136L1150.04 490.355L1162.69 526.954L1196.78 577.549C1198.65 580.32 1199.94 583.437 1200.58 586.716C1201.22 589.995 1201.2 593.369 1200.51 596.638C1199.82 599.908 1198.48 603.005 1196.57 605.748C1194.67 608.491 1192.23 610.823 1189.4 612.606L1144.63 640.849C1143.55 641.502 1142.29 641.805 1141.03 641.716C1139.77 641.627 1138.57 641.151 1137.59 640.353C1136.77 639.673 1136.14 638.791 1135.76 637.794L1126.35 614.28C1125.79 612.854 1125.78 611.271 1126.32 609.839C1126.87 608.407 1127.93 607.229 1129.29 606.537L1150.27 596.052C1150.84 595.735 1151.34 595.297 1151.73 594.768C1152.11 594.239 1152.38 593.632 1152.51 592.989C1152.56 592.407 1152.48 591.82 1152.26 591.278C1152.04 590.736 1151.69 590.256 1151.25 589.877L1126.9 568.894C1126.36 568.427 1125.69 568.129 1124.98 568.035C1124.28 567.941 1123.55 568.056 1122.91 568.366C1122.27 568.676 1121.73 569.167 1121.36 569.779C1120.99 570.391 1120.81 571.098 1120.83 571.812L1126.87 731.107C1126.93 732.603 1126.43 734.067 1125.48 735.223C1124.53 736.379 1123.19 737.147 1121.71 737.381L1105.24 739.98C1104.92 740.032 1104.59 740.058 1104.26 740.058Z" fill="#2F2E41"/>
<path d="M1146.27 496.629C1146.13 496.629 1145.99 496.624 1145.85 496.614L1085.13 492.117C1084.29 492.056 1083.47 491.802 1082.74 491.373C1082.01 490.945 1081.39 490.355 1080.93 489.649C1080.47 488.942 1080.17 488.138 1080.07 487.3C1079.97 486.461 1080.06 485.61 1080.34 484.813C1084.08 474.048 1084.53 462.416 1081.66 451.391C1077.7 435.802 1077.61 406.817 1077.91 390.927C1077.97 388.233 1079.05 385.664 1080.93 383.731C1082.81 381.799 1085.35 380.645 1088.04 380.501L1088.04 380.479L1089.26 380.494C1099.16 380.633 1117.31 381.338 1132.16 384.428C1137.17 385.464 1141.67 388.173 1144.93 392.108C1148.19 396.044 1150.02 400.973 1150.1 406.083C1150.44 420.835 1150.49 440.803 1148.81 452.154C1147.4 461.73 1150.01 480.12 1151.69 490.229C1151.82 491.017 1151.78 491.823 1151.56 492.592C1151.35 493.362 1150.97 494.075 1150.46 494.684C1149.94 495.293 1149.3 495.782 1148.58 496.118C1147.85 496.454 1147.06 496.628 1146.27 496.629H1146.27Z" fill="#CD6505"/>
<path d="M1167.94 554.495C1166.32 553.721 1164.9 552.601 1163.76 551.215C1162.62 549.829 1161.8 548.211 1161.36 546.474C1160.91 544.737 1160.85 542.923 1161.18 541.161C1161.52 539.399 1162.23 537.732 1163.28 536.276L1135.23 415.377H1156.44L1181.19 533.893C1183.52 535.813 1185.06 538.521 1185.53 541.503C1185.99 544.486 1185.35 547.536 1183.72 550.075C1182.08 552.615 1179.58 554.467 1176.67 555.282C1173.76 556.097 1170.66 555.817 1167.94 554.495H1167.94Z" fill="#FFB8B8"/>
<path d="M1035.13 428.474L1068.7 396.723L1081.35 414.426L1049.73 442.246L1091.2 475.169C1091.5 475.149 1091.79 475.123 1092.1 475.123C1094.65 475.121 1097.15 475.853 1099.3 477.233C1101.44 478.613 1103.15 480.582 1104.2 482.905C1105.26 485.227 1105.62 487.805 1105.25 490.329C1104.88 492.853 1103.79 495.217 1102.11 497.138C1100.43 499.059 1098.24 500.456 1095.78 501.161C1093.33 501.866 1090.73 501.85 1088.28 501.115C1085.84 500.379 1083.66 498.956 1082.01 497.014C1080.35 495.073 1079.29 492.695 1078.95 490.167L1078.82 490.298L1035.66 452.901C1033.92 451.393 1032.51 449.538 1031.53 447.455C1030.55 445.372 1030.02 443.107 1029.97 440.805C1029.92 438.504 1030.36 436.218 1031.24 434.094C1032.13 431.97 1033.45 430.056 1035.13 428.474V428.474Z" fill="#FFB8B8"/>
<path d="M1137.47 423.124C1136.43 423.127 1135.41 422.835 1134.54 422.282C1133.66 421.729 1132.95 420.937 1132.51 420C1129.83 414.353 1127.99 408.349 1127.04 402.174C1125.59 392.087 1132.6 386.087 1139.73 384.78C1146.67 383.508 1155.13 386.559 1157.29 396.26C1157.47 397.081 1157.61 397.911 1157.71 398.746C1158.57 406.1 1159.39 411.819 1160.13 415.746C1160.27 416.518 1160.25 417.313 1160.06 418.076C1159.87 418.839 1159.53 419.553 1159.04 420.169C1158.55 420.786 1157.94 421.291 1157.24 421.651C1156.54 422.011 1155.77 422.217 1154.99 422.255L1137.75 423.117C1137.66 423.122 1137.56 423.124 1137.47 423.124Z" fill="#CD6505"/>
<path d="M1113.43 370.087C1133.7 370.087 1150.14 353.655 1150.14 333.384C1150.14 313.113 1133.7 296.681 1113.43 296.681C1093.15 296.681 1076.72 313.113 1076.72 333.384C1076.72 353.655 1093.15 370.087 1113.43 370.087Z" fill="#2F2E41"/>
<path d="M1113.65 372.96C1130.25 372.96 1143.71 359.507 1143.71 342.911C1143.71 326.316 1130.25 312.862 1113.65 312.862C1097.05 312.862 1083.59 326.316 1083.59 342.911C1083.59 359.507 1097.05 372.96 1113.65 372.96Z" fill="#FFB8B8"/>
<path d="M1060.3 408.5C1059.54 407.801 1058.98 406.899 1058.71 405.898C1058.44 404.897 1058.45 403.839 1058.76 402.847C1060.6 396.877 1063.3 391.207 1066.77 386.012C1072.52 377.593 1081.74 377.908 1087.89 381.763C1093.86 385.512 1098.03 393.471 1093.07 402.082C1092.65 402.81 1092.19 403.516 1091.7 404.198C1087.37 410.203 1084.1 414.97 1081.99 418.365C1081.58 419.033 1081.02 419.604 1080.37 420.039C1079.72 420.475 1078.98 420.766 1078.2 420.892C1077.43 421.017 1076.63 420.976 1075.87 420.769C1075.12 420.562 1074.41 420.196 1073.81 419.694L1060.51 408.685C1060.44 408.625 1060.37 408.563 1060.3 408.5Z" fill="#CD6505"/>
<path d="M1106.3 300.605C1098.91 296.198 1097.31 285.224 1101.71 277.834C1106.11 270.444 1115.01 266.59 1123.61 266.336C1135.89 265.973 1147.75 272.087 1156.35 280.864C1164.95 289.641 1170.62 300.876 1174.94 312.376C1179.27 323.876 1182.37 335.802 1186.63 347.326C1188.82 353.239 1191.51 359.31 1196.51 363.15C1201.51 366.99 1209.46 367.682 1213.74 363.048C1213.72 370.464 1208.03 377.205 1200.98 379.5C1193.93 381.796 1185.95 380.063 1179.77 375.966C1169.04 368.86 1163.86 355.888 1160.9 343.369C1157.94 330.85 1156.48 317.731 1150.53 306.326C1148.07 301.6 1144.69 297.111 1139.93 294.7C1135.18 292.289 1128.84 292.447 1125.02 296.16C1123.25 297.88 1122.1 300.225 1120.09 301.659C1118.82 302.455 1117.38 302.949 1115.89 303.104C1114.39 303.259 1112.89 303.072 1111.48 302.555C1108.67 301.501 1106.05 300.019 1103.69 298.163" fill="#2F2E41"/>
<path d="M1082.26 322.608C1085.16 326.502 1088.81 329.769 1093.01 332.213C1097.2 334.656 1101.84 336.226 1106.66 336.827C1111.48 337.428 1116.36 337.048 1121.03 335.71C1125.7 334.372 1130.04 332.103 1133.81 329.04C1136.73 326.667 1139.44 323.395 1139.25 319.638C1139.07 315.79 1135.92 312.768 1132.71 310.64C1124.26 305.087 1114.09 302.752 1104.07 304.06C1098.34 304.829 1092.61 306.914 1088.56 311.024C1084.5 315.135 1082.48 321.529 1084.57 326.908" fill="#2F2E41"/>
</g>
<defs>
<clipPath id="clip0_2_2">
<rect width="1126" height="504" fill="white" transform="translate(157 260)"/>
</clipPath>
</defs>
</svg>
