<svg width="1440" height="1024" viewBox="0 0 1440 1024" fill="none" xmlns="http://www.w3.org/2000/svg">
<g clip-path="url(#clip0_3_31)">
<path d="M360.065 618.558L353.504 614.481C352.878 614.095 352.262 613.677 351.636 613.281C365.605 610.884 378.343 603.806 387.756 593.212C397.169 582.617 402.696 569.136 403.431 554.984C404.165 540.832 400.062 526.851 391.796 515.339C383.53 503.828 371.593 495.47 357.947 491.641L358.271 517.371L344.136 489.388H343.938C335.748 489.005 327.562 490.239 319.849 493.02C312.135 495.8 305.045 500.073 298.983 505.593C292.921 511.114 288.007 517.774 284.519 525.194C281.032 532.613 279.041 540.647 278.66 548.837C278.597 550.026 278.66 551.204 278.66 552.383C273.746 546.772 269.271 540.754 266.319 534.162C260.342 520.823 260.228 505.7 260.697 487.333C261.636 450.924 263.211 414.243 265.255 377.677C280.015 376.034 293.706 369.184 303.869 358.357C314.032 347.53 320.002 333.435 320.708 318.603C320.791 316.695 320.76 314.807 320.708 312.94C320.708 312.471 320.708 312.001 320.635 311.542C320.51 309.728 320.343 307.934 320.061 306.161C320.061 305.869 319.957 305.587 319.905 305.306C319.654 303.804 319.341 302.323 318.987 300.852C318.851 300.31 318.715 299.809 318.569 299.215C318.131 297.629 317.651 296.086 317.088 294.511C316.9 294 316.681 293.468 316.483 292.988C316.045 291.851 315.565 290.725 315.054 289.619C314.783 289.035 314.522 288.451 314.24 287.878C314.157 287.732 314.105 287.575 314.021 287.429C307.43 274.407 296.479 264.108 283.076 258.326C269.673 252.545 254.667 251.646 240.669 255.786L241.086 289.265L227.108 261.606C215.615 268.19 206.526 278.274 201.168 290.387C195.811 302.5 194.465 316.007 197.327 328.939H197.265C197.359 329.387 197.494 329.805 197.599 330.253C197.797 331.077 198.005 331.891 198.235 332.704C198.527 333.747 198.861 334.79 199.205 335.833C199.466 336.594 199.716 337.366 200.008 338.127C200.436 339.233 200.916 340.307 201.395 341.382C201.677 342.007 201.927 342.654 202.23 343.269C203.023 344.889 203.885 346.464 204.817 347.994C205.14 348.536 205.505 349.037 205.86 349.569C206.528 350.612 207.195 351.655 207.946 352.625C208.395 353.24 208.875 353.824 209.344 354.429C210.033 355.295 210.731 356.15 211.43 356.974C211.941 357.568 212.473 358.131 213.005 358.705C213.777 359.508 214.56 360.29 215.373 361.062C215.905 361.573 216.416 362.105 217.011 362.585C217.929 363.398 218.889 364.181 219.859 364.942C220.349 365.317 220.829 365.724 221.33 366.1C222.811 367.143 224.334 368.186 225.909 369.229C226.201 369.416 226.524 369.562 226.816 369.74C228.141 370.511 229.476 371.241 230.853 371.919C231.448 372.211 232.053 372.462 232.658 372.733C233.784 373.244 234.921 373.776 236.09 374.172C236.768 374.433 237.456 374.673 238.176 374.913C239.323 375.299 240.492 375.653 241.67 375.956C242.359 376.143 243.058 376.342 243.757 376.508C245.029 376.811 246.333 377.061 247.648 377.291L247.898 377.343C247.042 392.765 246.278 408.197 245.603 423.64C241.885 415.994 236.643 409.188 230.199 403.642C223.755 398.095 216.245 393.924 208.13 391.384C200.015 388.845 191.466 387.99 183.009 388.874C174.552 389.758 166.365 392.361 158.951 396.523L169.987 426.769L147.257 404.866C135.086 415.994 127.83 431.498 127.083 447.972C126.793 453.751 127.327 459.542 128.669 465.17C131.523 477.348 137.971 488.387 147.176 496.856C156.381 505.326 167.919 510.834 180.293 512.668C192.667 514.501 205.307 512.575 216.573 507.139C227.839 501.703 237.211 493.008 243.475 482.181C243.475 483.746 243.371 485.31 243.329 486.885C242.912 503.092 242.39 523.263 250.474 541.275C255.951 553.478 264.755 563.386 273.423 572.272C279.087 578.06 284.96 583.651 290.979 589.064C296.899 597.023 304.629 603.458 313.531 607.837C323.42 615.461 333.663 622.626 344.251 629.238L350.864 633.348C356.81 637.029 362.902 640.815 368.869 644.747C367.826 644.643 366.782 644.528 365.739 644.476C352.501 643.859 339.41 647.468 328.358 654.78C317.306 662.091 308.866 672.728 304.258 685.151L343.271 716.889L300.356 706.939C300.37 717.495 303.059 727.876 308.172 737.112C313.286 746.348 320.657 754.137 329.598 759.753C338.538 765.368 348.757 768.626 359.298 769.223C369.839 769.82 380.36 767.735 389.877 763.165C388.918 764.375 387.951 765.578 386.977 766.773C385.058 769.158 383.163 771.529 381.292 773.886C355.903 806.03 348.841 836.558 361.41 859.826L376.703 851.566C364.467 828.923 382.867 799.929 394.926 784.66C396.762 782.331 398.626 780.002 400.517 777.672C416.758 757.47 435.138 734.65 434.69 706.616C434.012 664.386 392.965 638.98 360.065 618.558Z" fill="#FFD76F"/>
<path d="M964.043 491.318L970.604 487.24C971.23 486.854 971.845 486.437 972.471 486.04C958.505 483.636 945.772 476.552 936.365 465.954C926.957 455.356 921.436 441.873 920.708 427.722C919.98 413.57 924.088 399.592 932.358 388.085C940.628 376.577 952.566 368.225 966.213 364.4L965.889 390.13L980.024 362.147H980.201C988.391 361.764 996.577 362.998 1004.29 365.779C1012 368.559 1019.09 372.832 1025.16 378.352C1031.22 383.873 1036.13 390.533 1039.62 397.953C1043.11 405.373 1045.1 413.406 1045.48 421.596C1045.54 422.785 1045.48 423.963 1045.48 425.142C1050.39 419.531 1054.87 413.513 1057.82 406.921C1063.8 393.582 1063.91 378.459 1063.44 360.092C1062.5 323.683 1060.93 287.002 1058.88 250.436C1044.12 248.793 1030.43 241.943 1020.27 231.116C1010.11 220.289 1004.14 206.194 1003.43 191.362C1003.35 189.454 1003.38 187.566 1003.43 185.699C1003.43 185.23 1003.43 184.76 1003.5 184.302C1003.63 182.487 1003.8 180.693 1004.08 178.92C1004.08 178.628 1004.18 178.346 1004.23 178.065C1004.48 176.563 1004.8 175.082 1005.15 173.611C1005.29 173.069 1005.42 172.568 1005.57 171.974C1006.01 170.388 1006.49 168.845 1007.05 167.27C1007.24 166.759 1007.46 166.227 1007.66 165.747C1008.09 164.61 1008.57 163.484 1009.08 162.379C1009.36 161.794 1009.62 161.21 1009.91 160.637C1009.98 160.491 1010.03 160.334 1010.12 160.188C1016.71 147.173 1027.65 136.879 1041.04 131.095C1054.44 125.312 1069.44 124.406 1083.43 128.534L1083.01 162.013L1096.99 134.354C1108.49 140.937 1117.58 151.022 1122.94 163.138C1128.3 175.253 1129.64 188.764 1126.78 201.698H1126.84C1126.75 202.147 1126.61 202.564 1126.51 203.012C1126.31 203.836 1126.1 204.65 1125.87 205.463C1125.58 206.506 1125.25 207.549 1124.9 208.592C1124.64 209.353 1124.39 210.125 1124.1 210.887C1123.67 211.992 1123.19 213.066 1122.71 214.141C1122.43 214.766 1122.18 215.413 1121.88 216.028C1121.08 217.648 1120.22 219.223 1119.29 220.753C1118.97 221.295 1118.6 221.796 1118.25 222.328C1117.58 223.371 1116.91 224.414 1116.16 225.384C1115.71 225.999 1115.23 226.583 1114.76 227.188C1114.08 228.054 1113.38 228.909 1112.68 229.733C1112.17 230.327 1111.63 230.891 1111.1 231.464C1110.34 232.267 1109.55 233.049 1108.73 233.821C1108.2 234.332 1107.69 234.864 1107.1 235.344C1106.18 236.157 1105.22 236.94 1104.25 237.701C1103.76 238.077 1103.28 238.483 1102.78 238.859C1101.3 239.902 1099.77 240.945 1098.2 241.936C1097.91 242.123 1097.58 242.269 1097.29 242.447C1095.97 243.218 1094.63 243.948 1093.25 244.626C1092.66 244.918 1092.05 245.169 1091.45 245.44C1090.32 245.951 1089.19 246.483 1088.02 246.879C1087.34 247.14 1086.65 247.38 1085.93 247.62C1084.78 248.006 1083.62 248.36 1082.44 248.663C1081.75 248.85 1081.05 249.048 1080.35 249.215C1079.08 249.518 1077.77 249.768 1076.46 249.998H1076.21C1077.07 265.426 1077.83 280.859 1078.5 296.295C1082.22 288.649 1087.46 281.843 1093.91 276.296C1100.35 270.75 1107.86 266.578 1115.98 264.039C1124.09 261.499 1132.64 260.645 1141.1 261.529C1149.56 262.413 1157.74 265.015 1165.16 269.178L1154.12 299.423L1176.83 277.626C1189 288.754 1196.26 304.257 1197 320.731C1197.29 326.51 1196.76 332.301 1195.42 337.93C1192.56 350.107 1186.12 361.146 1176.91 369.615C1167.71 378.085 1156.17 383.593 1143.79 385.427C1131.42 387.26 1118.78 385.334 1107.51 379.898C1096.25 374.462 1086.88 365.767 1080.61 354.94C1080.61 356.505 1080.73 358.069 1080.76 359.644C1081.18 375.852 1081.7 396.022 1073.61 414.034C1068.14 426.237 1059.33 436.145 1050.66 445.031C1045 450.819 1039.13 456.41 1033.11 461.823C1027.19 469.782 1019.46 476.217 1010.56 480.596C1000.67 488.22 990.423 495.385 979.836 501.998L973.222 506.107C967.277 509.788 961.185 513.574 955.218 517.506C956.261 517.402 957.304 517.287 958.347 517.235C971.586 516.618 984.677 520.227 995.729 527.539C1006.78 534.851 1015.22 545.487 1019.83 557.911L980.816 589.648L1023.73 579.698C1023.72 590.255 1021.03 600.636 1015.91 609.871C1010.8 619.107 1003.43 626.897 994.489 632.512C985.548 638.127 975.33 641.386 964.789 641.982C954.248 642.579 943.727 640.495 934.21 635.924C935.169 637.134 936.136 638.337 937.11 639.533C939.029 641.917 940.924 644.288 942.794 646.646C968.184 678.79 975.246 709.317 962.676 732.585L947.384 724.325C959.62 701.683 941.219 672.688 929.161 657.419C927.325 655.09 925.461 652.761 923.57 650.432C907.349 630.282 888.969 607.441 889.418 579.427C890.096 537.145 931.101 511.739 964.043 491.318Z" fill="#FFD76F"/>
<path d="M797.467 899C1082.74 899 1314 883.591 1314 864.582C1314 845.574 1082.74 830.165 797.467 830.165C512.193 830.165 280.934 845.574 280.934 864.582C280.934 883.591 512.193 899 797.467 899Z" fill="#FFD76F"/>
<path d="M814.814 865.625L628.94 863.247L629.482 858.481L638.474 779.852H801.712L813.719 858.481L814.637 864.436L814.814 865.625Z" fill="#2F2E41"/>
<path opacity="0.1" d="M814.637 864.436H721.872L628.94 863.247L629.482 858.481H813.719L814.637 864.436Z" fill="black"/>
<path d="M844.605 859.67H597.959V865.625H844.605V859.67Z" fill="#3F3D56"/>
<path d="M1079.43 307.587V307.59V724.545H360.763L360.763 307.59L360.763 307.587C360.754 305.616 361.133 303.663 361.879 301.838C362.624 300.014 363.722 298.354 365.11 296.954C366.497 295.553 368.147 294.44 369.964 293.677C371.782 292.915 373.731 292.517 375.702 292.508H1064.49C1066.47 292.517 1068.42 292.915 1070.23 293.677C1072.05 294.44 1073.7 295.553 1075.09 296.954C1076.47 298.354 1077.57 300.014 1078.32 301.838C1079.06 303.663 1079.44 305.616 1079.43 307.587Z" fill="#3F3D56" stroke="black"/>
<path d="M360.263 720.883V769.777C360.263 773.871 361.889 777.797 364.785 780.692C367.68 783.587 371.607 785.213 375.701 785.213H1064.5C1068.59 785.213 1072.52 783.587 1075.41 780.692C1078.31 777.797 1079.93 773.871 1079.93 769.777V720.883H360.263Z" fill="#3F3D56"/>
<path d="M1053.71 318.218H390.044V693.485H1053.71V318.218Z" fill="#2F2E41"/>
<path d="M723.635 766.659C726.072 766.662 728.477 766.11 730.669 765.046C732.862 763.981 734.783 762.432 736.288 760.516C736.748 759.931 737.166 759.314 737.539 758.67L728.715 757.22L738.259 757.293C739.173 755.301 739.671 753.144 739.725 750.953C739.779 748.762 739.387 746.583 738.572 744.548L725.763 751.192L737.571 742.514C736.462 740.609 734.973 738.951 733.196 737.645C731.419 736.339 729.393 735.412 727.243 734.922C725.093 734.431 722.865 734.389 720.697 734.796C718.53 735.203 716.47 736.051 714.644 737.288C712.818 738.525 711.267 740.124 710.085 741.986C708.904 743.848 708.118 745.933 707.777 748.111C707.435 750.289 707.545 752.515 708.1 754.649C708.655 756.783 709.643 758.78 711.002 760.516V760.516C712.505 762.43 714.423 763.977 716.611 765.041C718.8 766.105 721.201 766.658 723.635 766.659Z" fill="#C37603"/>
<path opacity="0.1" d="M739.751 785.213L813.906 859.67L802.526 785.213H739.751Z" fill="black"/>
<path d="M938.914 836.026L958.89 824.345C956.184 819.738 952.733 815.611 948.678 812.132L911.011 823.844L940.52 806.489C933.213 802.487 924.989 800.456 916.658 800.597C908.327 800.737 900.176 803.044 893.008 807.291C885.839 811.538 879.901 817.578 875.776 824.816C871.651 832.054 869.483 840.242 869.484 848.573C869.484 875.074 890.972 875.992 917.468 875.992C943.963 875.992 965.451 875.074 965.451 848.573C965.459 841.87 964.059 835.239 961.341 829.111L938.914 836.026Z" fill="#57B894"/>
<path opacity="0.1" d="M944.005 861.787C941.874 859.659 939.496 857.792 936.922 856.228C933.302 853.819 929.547 851.368 925.27 850.544C921.525 849.825 917.645 850.429 913.796 850.221C907.154 849.814 900.902 846.947 896.261 842.18C893.528 839.364 891.389 835.922 888.104 833.742C884.567 831.427 880.082 830.926 875.899 831.5C874.679 831.682 873.471 831.932 872.279 832.251C870.396 837.468 869.436 842.974 869.442 848.521C869.442 875.022 890.93 875.94 917.426 875.94C930.287 875.94 941.97 875.721 950.587 872.467L949.147 869.776C947.777 866.907 946.049 864.222 944.005 861.787V861.787Z" fill="black"/>
<path opacity="0.3" d="M441.585 462.991H419.523V469.687H441.585V462.991Z" fill="#C37603"/>
<path opacity="0.3" d="M1030.27 463.189H1008.21V469.885H1030.27V463.189Z" fill="#C37603"/>
<path opacity="0.3" d="M441.783 510.06H419.721V516.755H441.783V510.06Z" fill="#C37603"/>
<path opacity="0.3" d="M441.981 557.128H419.919V563.824H441.981V557.128Z" fill="#C37603"/>
<path opacity="0.3" d="M442.179 604.187H420.117V610.882H442.179V604.187Z" fill="#C37603"/>
<g opacity="0.2">
<path opacity="0.2" d="M447.843 466.213H441.585V466.474H447.843V466.213Z" fill="#F2F2F2"/>
<path opacity="0.2" d="M989.255 466.474H976.957V466.213H989.255V466.474ZM964.648 466.474H952.35V466.213H964.648V466.474ZM940.041 466.474H927.732V466.213H940.041V466.474ZM915.433 466.474H903.125V466.213H915.433V466.474ZM890.826 466.474H878.517V466.213H890.826V466.474ZM866.209 466.474H853.91V466.213H866.209V466.474ZM841.601 466.474H829.292V466.213H841.601V466.474ZM816.994 466.474H804.685V466.213H816.994V466.474ZM792.387 466.474H780.078V466.213H792.387V466.474ZM767.769 466.474H755.471V466.213H767.769V466.474ZM743.162 466.474H730.853V466.213H743.162V466.474ZM718.555 466.474H706.246V466.213H718.555V466.474ZM693.947 466.474H681.638V466.213H693.947V466.474ZM669.33 466.474H657.031V466.213H669.33V466.474ZM644.722 466.474H632.424V466.213H644.722V466.474ZM620.115 466.474H607.848V466.213H620.157L620.115 466.474ZM595.508 466.474H583.199V466.213H595.508V466.474ZM570.89 466.474H558.592V466.213H570.89V466.474ZM546.283 466.474H533.985V466.213H546.304L546.283 466.474ZM521.676 466.474H509.367V466.213H521.676V466.474ZM497.068 466.474H484.76V466.213H497.068V466.474ZM472.451 466.474H460.152V466.213H472.451V466.474Z" fill="#F2F2F2"/>
<path opacity="0.2" d="M1007.82 466.213H1001.56V466.474H1007.82V466.213Z" fill="#F2F2F2"/>
<path opacity="0.2" d="M447.843 466.213H441.585V466.474H447.843V466.213Z" fill="#F2F2F2"/>
<path opacity="0.2" d="M989.255 466.474H976.957V466.213H989.255V466.474ZM964.648 466.474H952.35V466.213H964.648V466.474ZM940.041 466.474H927.732V466.213H940.041V466.474ZM915.433 466.474H903.125V466.213H915.433V466.474ZM890.826 466.474H878.517V466.213H890.826V466.474ZM866.209 466.474H853.91V466.213H866.209V466.474ZM841.601 466.474H829.292V466.213H841.601V466.474ZM816.994 466.474H804.685V466.213H816.994V466.474ZM792.387 466.474H780.078V466.213H792.387V466.474ZM767.769 466.474H755.471V466.213H767.769V466.474ZM743.162 466.474H730.853V466.213H743.162V466.474ZM718.555 466.474H706.246V466.213H718.555V466.474ZM693.947 466.474H681.638V466.213H693.947V466.474ZM669.33 466.474H657.031V466.213H669.33V466.474ZM644.722 466.474H632.424V466.213H644.722V466.474ZM620.115 466.474H607.848V466.213H620.157L620.115 466.474ZM595.508 466.474H583.199V466.213H595.508V466.474ZM570.89 466.474H558.592V466.213H570.89V466.474ZM546.283 466.474H533.985V466.213H546.304L546.283 466.474ZM521.676 466.474H509.367V466.213H521.676V466.474ZM497.068 466.474H484.76V466.213H497.068V466.474ZM472.451 466.474H460.152V466.213H472.451V466.474Z" fill="#F2F2F2"/>
<path opacity="0.2" d="M1007.82 466.213H1001.56V466.474H1007.82V466.213Z" fill="#F2F2F2"/>
</g>
<path opacity="0.3" d="M441.585 416.058H419.523V422.753H441.585V416.058Z" fill="#C37603"/>
<path opacity="0.3" d="M1030.27 416.256H1008.21V422.951H1030.27V416.256Z" fill="#C37603"/>
<g opacity="0.2">
<path opacity="0.2" d="M447.843 419.28H441.585V419.541H447.843V419.28Z" fill="#F2F2F2"/>
<path opacity="0.2" d="M989.255 419.541H976.957V419.28H989.255V419.541ZM964.648 419.541H952.35V419.28H964.648V419.541ZM940.041 419.541H927.732V419.28H940.041V419.541ZM915.433 419.541H903.125V419.28H915.433V419.541ZM890.826 419.541H878.517V419.28H890.826V419.541ZM866.209 419.541H853.91V419.28H866.209V419.541ZM841.601 419.541H829.292V419.28H841.601V419.541ZM816.994 419.541H804.685V419.28H816.994V419.541ZM792.387 419.541H780.078V419.28H792.387V419.541ZM767.769 419.541H755.471V419.28H767.769V419.541ZM743.162 419.541H730.853V419.28H743.162V419.541ZM718.555 419.541H706.246V419.28H718.555V419.541ZM693.947 419.541H681.638V419.28H693.947V419.541ZM669.33 419.541H657.031V419.28H669.33V419.541ZM644.722 419.541H632.424V419.28H644.722V419.541ZM620.115 419.541H607.848V419.28H620.157L620.115 419.541ZM595.508 419.541H583.199V419.28H595.508V419.541ZM570.89 419.541H558.592V419.28H570.89V419.541ZM546.283 419.541H533.985V419.28H546.304L546.283 419.541ZM521.676 419.541H509.367V419.28H521.676V419.541ZM497.068 419.541H484.76V419.28H497.068V419.541ZM472.451 419.541H460.152V419.28H472.451V419.541Z" fill="#F2F2F2"/>
<path opacity="0.2" d="M1007.82 419.28H1001.56V419.541H1007.82V419.28Z" fill="#F2F2F2"/>
</g>
<path opacity="0.3" d="M1030.27 510.06H1008.21V516.755H1030.27V510.06Z" fill="#C37603"/>
<g opacity="0.2">
<path opacity="0.2" d="M447.843 513.084H441.585V513.345H447.843V513.084Z" fill="#F2F2F2"/>
<path opacity="0.2" d="M989.255 513.334H976.957V513.074H989.255V513.334ZM964.648 513.334H952.35V513.074H964.648V513.334ZM940.041 513.334H927.732V513.074H940.041V513.334ZM915.433 513.334H903.125V513.074H915.433V513.334ZM890.826 513.334H878.517V513.074H890.826V513.334ZM866.209 513.334H853.91V513.074H866.209V513.334ZM841.601 513.334H829.292V513.074H841.601V513.334ZM816.994 513.334H804.685V513.074H816.994V513.334ZM792.387 513.334H780.078V513.074H792.387V513.334ZM767.769 513.334H755.471V513.074H767.769V513.334ZM743.162 513.334H730.853V513.074H743.162V513.334ZM718.555 513.334H706.246V513.074H718.555V513.334ZM693.947 513.334H681.638V513.074H693.947V513.334ZM669.33 513.334H657.031V513.074H669.33V513.334ZM644.722 513.334H632.424V513.074H644.722V513.334ZM620.115 513.334H607.848V513.074H620.157L620.115 513.334ZM595.508 513.334H583.199V513.074H595.508V513.334ZM570.89 513.334H558.592V513.074H570.89V513.334ZM546.283 513.334H533.985V513.074H546.304L546.283 513.334ZM521.676 513.334H509.367V513.074H521.676V513.334ZM497.068 513.334H484.76V513.074H497.068V513.334ZM472.451 513.334H460.152V513.074H472.451V513.334Z" fill="#F2F2F2"/>
<path opacity="0.2" d="M1007.82 513.084H1001.56V513.345H1007.82V513.084Z" fill="#F2F2F2"/>
<path opacity="0.2" d="M447.843 513.084H441.585V513.345H447.843V513.084Z" fill="#F2F2F2"/>
<path opacity="0.2" d="M989.255 513.334H976.957V513.074H989.255V513.334ZM964.648 513.334H952.35V513.074H964.648V513.334ZM940.041 513.334H927.732V513.074H940.041V513.334ZM915.433 513.334H903.125V513.074H915.433V513.334ZM890.826 513.334H878.517V513.074H890.826V513.334ZM866.209 513.334H853.91V513.074H866.209V513.334ZM841.601 513.334H829.292V513.074H841.601V513.334ZM816.994 513.334H804.685V513.074H816.994V513.334ZM792.387 513.334H780.078V513.074H792.387V513.334ZM767.769 513.334H755.471V513.074H767.769V513.334ZM743.162 513.334H730.853V513.074H743.162V513.334ZM718.555 513.334H706.246V513.074H718.555V513.334ZM693.947 513.334H681.638V513.074H693.947V513.334ZM669.33 513.334H657.031V513.074H669.33V513.334ZM644.722 513.334H632.424V513.074H644.722V513.334ZM620.115 513.334H607.848V513.074H620.157L620.115 513.334ZM595.508 513.334H583.199V513.074H595.508V513.334ZM570.89 513.334H558.592V513.074H570.89V513.334ZM546.283 513.334H533.985V513.074H546.304L546.283 513.334ZM521.676 513.334H509.367V513.074H521.676V513.334ZM497.068 513.334H484.76V513.074H497.068V513.334ZM472.451 513.334H460.152V513.074H472.451V513.334Z" fill="#F2F2F2"/>
<path opacity="0.2" d="M1007.82 513.084H1001.56V513.345H1007.82V513.084Z" fill="#F2F2F2"/>
</g>
<path opacity="0.3" d="M1030.27 556.93H1008.21V563.626H1030.27V556.93Z" fill="#C37603"/>
<g opacity="0.2">
<path opacity="0.2" d="M447.843 559.944H441.585V560.205H447.843V559.944Z" fill="#F2F2F2"/>
<path opacity="0.2" d="M989.255 560.205H976.957V559.944H989.255V560.205ZM964.648 560.205H952.35V559.944H964.648V560.205ZM940.041 560.205H927.732V559.944H940.041V560.205ZM915.433 560.205H903.125V559.944H915.433V560.205ZM890.826 560.205H878.517V559.944H890.826V560.205ZM866.209 560.205H853.91V559.944H866.209V560.205ZM841.601 560.205H829.292V559.944H841.601V560.205ZM816.994 560.205H804.685V559.944H816.994V560.205ZM792.387 560.205H780.078V559.944H792.387V560.205ZM767.769 560.205H755.471V559.944H767.769V560.205ZM743.162 560.205H730.853V559.944H743.162V560.205ZM718.555 560.205H706.246V559.944H718.555V560.205ZM693.947 560.205H681.638V559.944H693.947V560.205ZM669.33 560.205H657.031V559.944H669.33V560.205ZM644.722 560.205H632.424V559.944H644.722V560.205ZM620.115 560.205H607.848V559.944H620.157L620.115 560.205ZM595.508 560.205H583.199V559.944H595.508V560.205ZM570.89 560.205H558.592V559.944H570.89V560.205ZM546.283 560.205H533.985V559.944H546.304L546.283 560.205ZM521.676 560.205H509.367V559.944H521.676V560.205ZM497.068 560.205H484.76V559.944H497.068V560.205ZM472.451 560.205H460.152V559.944H472.451V560.205Z" fill="#F2F2F2"/>
<path opacity="0.2" d="M1007.82 559.944H1001.56V560.205H1007.82V559.944Z" fill="#F2F2F2"/>
<path opacity="0.2" d="M447.843 559.944H441.585V560.205H447.843V559.944Z" fill="#F2F2F2"/>
<path opacity="0.2" d="M989.255 560.205H976.957V559.944H989.255V560.205ZM964.648 560.205H952.35V559.944H964.648V560.205ZM940.041 560.205H927.732V559.944H940.041V560.205ZM915.433 560.205H903.125V559.944H915.433V560.205ZM890.826 560.205H878.517V559.944H890.826V560.205ZM866.209 560.205H853.91V559.944H866.209V560.205ZM841.601 560.205H829.292V559.944H841.601V560.205ZM816.994 560.205H804.685V559.944H816.994V560.205ZM792.387 560.205H780.078V559.944H792.387V560.205ZM767.769 560.205H755.471V559.944H767.769V560.205ZM743.162 560.205H730.853V559.944H743.162V560.205ZM718.555 560.205H706.246V559.944H718.555V560.205ZM693.947 560.205H681.638V559.944H693.947V560.205ZM669.33 560.205H657.031V559.944H669.33V560.205ZM644.722 560.205H632.424V559.944H644.722V560.205ZM620.115 560.205H607.848V559.944H620.157L620.115 560.205ZM595.508 560.205H583.199V559.944H595.508V560.205ZM570.89 560.205H558.592V559.944H570.89V560.205ZM546.283 560.205H533.985V559.944H546.304L546.283 560.205ZM521.676 560.205H509.367V559.944H521.676V560.205ZM497.068 560.205H484.76V559.944H497.068V560.205ZM472.451 560.205H460.152V559.944H472.451V560.205Z" fill="#F2F2F2"/>
<path opacity="0.2" d="M1007.82 559.944H1001.56V560.205H1007.82V559.944Z" fill="#F2F2F2"/>
</g>
<path opacity="0.3" d="M1030.27 603.79H1008.21V610.486H1030.27V603.79Z" fill="#C37603"/>
<g opacity="0.2">
<path opacity="0.2" d="M447.843 606.815H441.585V607.076H447.843V606.815Z" fill="#F2F2F2"/>
<path opacity="0.2" d="M989.255 607.076H976.957V606.815H989.255V607.076ZM964.648 607.076H952.35V606.815H964.648V607.076ZM940.041 607.076H927.732V606.815H940.041V607.076ZM915.433 607.076H903.125V606.815H915.433V607.076ZM890.826 607.076H878.517V606.815H890.826V607.076ZM866.209 607.076H853.91V606.815H866.209V607.076ZM841.601 607.076H829.292V606.815H841.601V607.076ZM816.994 607.076H804.685V606.815H816.994V607.076ZM792.387 607.076H780.078V606.815H792.387V607.076ZM767.769 607.076H755.471V606.815H767.769V607.076ZM743.162 607.076H730.853V606.815H743.162V607.076ZM718.555 607.076H706.246V606.815H718.555V607.076ZM693.947 607.076H681.638V606.815H693.947V607.076ZM669.33 607.076H657.031V606.815H669.33V607.076ZM644.722 607.076H632.424V606.815H644.722V607.076ZM620.115 607.076H607.848V606.815H620.157L620.115 607.076ZM595.508 607.076H583.199V606.815H595.508V607.076ZM570.89 607.076H558.592V606.815H570.89V607.076ZM546.283 607.076H533.985V606.815H546.304L546.283 607.076ZM521.676 607.076H509.367V606.815H521.676V607.076ZM497.068 607.076H484.76V606.815H497.068V607.076ZM472.451 607.076H460.152V606.815H472.451V607.076Z" fill="#F2F2F2"/>
<path opacity="0.2" d="M1007.82 606.815H1001.56V607.076H1007.82V606.815Z" fill="#F2F2F2"/>
<path opacity="0.2" d="M447.843 606.815H441.585V607.076H447.843V606.815Z" fill="#F2F2F2"/>
<path opacity="0.2" d="M989.255 607.076H976.957V606.815H989.255V607.076ZM964.648 607.076H952.35V606.815H964.648V607.076ZM940.041 607.076H927.732V606.815H940.041V607.076ZM915.433 607.076H903.125V606.815H915.433V607.076ZM890.826 607.076H878.517V606.815H890.826V607.076ZM866.209 607.076H853.91V606.815H866.209V607.076ZM841.601 607.076H829.292V606.815H841.601V607.076ZM816.994 607.076H804.685V606.815H816.994V607.076ZM792.387 607.076H780.078V606.815H792.387V607.076ZM767.769 607.076H755.471V606.815H767.769V607.076ZM743.162 607.076H730.853V606.815H743.162V607.076ZM718.555 607.076H706.246V606.815H718.555V607.076ZM693.947 607.076H681.638V606.815H693.947V607.076ZM669.33 607.076H657.031V606.815H669.33V607.076ZM644.722 607.076H632.424V606.815H644.722V607.076ZM620.115 607.076H607.848V606.815H620.157L620.115 607.076ZM595.508 607.076H583.199V606.815H595.508V607.076ZM570.89 607.076H558.592V606.815H570.89V607.076ZM546.283 607.076H533.985V606.815H546.304L546.283 607.076ZM521.676 607.076H509.367V606.815H521.676V607.076ZM497.068 607.076H484.76V606.815H497.068V607.076ZM472.451 607.076H460.152V606.815H472.451V607.076Z" fill="#F2F2F2"/>
<path opacity="0.2" d="M1007.82 606.815H1001.56V607.076H1007.82V606.815Z" fill="#F2F2F2"/>
</g>
<path d="M513.508 419.604V607.534" stroke="#F2F2F2" stroke-width="0.1" stroke-miterlimit="10"/>
<path d="M589.656 419.604V607.534" stroke="#F2F2F2" stroke-width="0.1" stroke-miterlimit="10"/>
<path d="M665.804 419.604V607.534" stroke="#F2F2F2" stroke-width="0.1" stroke-miterlimit="10"/>
<path d="M741.952 419.604V607.534" stroke="#F2F2F2" stroke-width="0.1" stroke-miterlimit="10"/>
<path d="M818.1 419.604V607.534" stroke="#F2F2F2" stroke-width="0.1" stroke-miterlimit="10"/>
<path d="M894.248 419.604V607.534" stroke="#F2F2F2" stroke-width="0.1" stroke-miterlimit="10"/>
<path d="M970.396 419.604V607.534" stroke="#F2F2F2" stroke-width="0.1" stroke-miterlimit="10"/>
<path opacity="0.3" d="M986.866 406.921L978.156 415.995C977.98 416.184 977.833 416.399 977.718 416.631L972.315 427.759C972.1 428.206 971.755 428.578 971.325 428.826C970.895 429.073 970.4 429.185 969.905 429.147L968.174 429.011C967.671 428.975 967.191 428.786 966.8 428.469C966.408 428.152 966.123 427.722 965.983 427.238L964.314 421.46C964.168 420.955 963.865 420.509 963.449 420.188C963.033 419.866 962.525 419.686 961.999 419.673C961.473 419.661 960.957 419.816 960.525 420.116C960.094 420.417 959.769 420.848 959.599 421.345L956.793 429.564C956.627 430.054 956.311 430.48 955.89 430.781C955.469 431.083 954.964 431.244 954.446 431.243H943.733C943.145 431.241 942.577 431.03 942.13 430.648C941.683 430.266 941.386 429.737 941.292 429.157L938.267 410.227C938.187 409.71 937.944 409.231 937.574 408.86C937.204 408.489 936.725 408.246 936.208 408.164C935.69 408.083 935.16 408.168 934.694 408.408C934.228 408.648 933.85 409.029 933.615 409.497L918.104 440.108C917.944 440.425 917.717 440.704 917.44 440.925C917.163 441.147 916.841 441.306 916.496 441.392C916.152 441.478 915.793 441.489 915.444 441.424C915.095 441.359 914.764 441.22 914.474 441.015L905.253 434.507C904.749 434.154 904.134 433.999 903.523 434.072C902.913 434.146 902.351 434.442 901.946 434.904L898.451 438.94C898.348 439.059 898.257 439.188 898.18 439.326L888.855 455.46C888.618 455.874 888.266 456.209 887.842 456.426C887.418 456.643 886.94 456.731 886.466 456.681L880.781 456.117C880.384 456.079 879.983 456.136 879.613 456.284L874.522 458.318C873.933 458.54 873.28 458.529 872.699 458.287C872.117 458.045 871.65 457.59 871.393 457.014L870.277 454.459C870.076 454.002 869.741 453.615 869.316 453.351C868.892 453.087 868.398 452.957 867.898 452.978L862.078 453.249C861.717 453.265 861.365 453.359 861.046 453.527C860.726 453.695 860.448 453.931 860.231 454.219L858.583 456.368C858.312 456.722 857.95 456.996 857.536 457.162C857.121 457.327 856.67 457.377 856.229 457.306C855.788 457.236 855.375 457.047 855.033 456.761C854.691 456.474 854.433 456.101 854.286 455.679L852.199 449.787C852.071 449.42 851.857 449.089 851.577 448.82C851.296 448.551 850.956 448.353 850.584 448.24C850.212 448.127 849.819 448.103 849.436 448.171C849.054 448.239 848.692 448.396 848.382 448.629L838.472 456.055L827.519 464.889C827.145 465.189 826.691 465.375 826.214 465.423C825.736 465.471 825.255 465.38 824.828 465.16L816.326 460.748C815.87 460.514 815.353 460.427 814.845 460.498L797.623 462.907C797.124 462.975 796.657 463.192 796.284 463.531C795.912 463.87 795.651 464.315 795.537 464.805L792.481 478.082C792.385 478.496 792.185 478.879 791.898 479.193C791.612 479.507 791.25 479.742 790.846 479.876C790.442 480.009 790.011 480.036 789.594 479.953C789.177 479.871 788.788 479.683 788.465 479.407V479.407C788.178 479.163 787.841 478.987 787.476 478.892C787.112 478.798 786.732 478.788 786.363 478.862C785.994 478.936 785.647 479.094 785.348 479.322C785.049 479.55 784.806 479.843 784.636 480.179L782.289 484.882C782.113 485.23 781.858 485.532 781.545 485.763C781.232 485.995 780.869 486.151 780.485 486.217L775.154 487.104C774.811 487.164 774.484 487.295 774.195 487.49L765.798 493.08C765.394 493.352 764.918 493.497 764.431 493.497H760.499C760.015 493.498 759.542 493.357 759.138 493.092C758.734 492.827 758.416 492.449 758.224 492.006L757.181 489.513C757.049 489.211 756.857 488.938 756.617 488.712C756.377 488.485 756.094 488.308 755.785 488.193C755.476 488.077 755.146 488.025 754.816 488.038C754.487 488.052 754.163 488.131 753.864 488.272L744.747 492.538C744.38 492.71 743.976 492.79 743.57 492.77C743.164 492.75 742.77 492.631 742.421 492.423L738.249 489.909C737.864 489.679 737.424 489.556 736.976 489.555H727.765C727.279 489.556 726.803 489.701 726.399 489.972L717.209 496.073C716.855 496.308 716.446 496.448 716.022 496.479C715.598 496.51 715.174 496.432 714.789 496.251L710.616 494.279C710.13 494.052 709.583 493.989 709.058 494.1C708.533 494.211 708.059 494.49 707.706 494.895L705.724 497.158C705.465 497.458 705.137 497.691 704.769 497.837C704.4 497.983 704.002 498.037 703.607 497.997C703.213 497.956 702.834 497.82 702.504 497.601C702.173 497.383 701.9 497.088 701.708 496.741L701.114 495.698C700.952 495.41 700.735 495.157 700.475 494.954C700.214 494.751 699.915 494.603 699.597 494.517C699.278 494.431 698.945 494.411 698.618 494.456C698.291 494.501 697.976 494.611 697.692 494.78L690.463 499.067C690.089 499.282 689.664 499.395 689.232 499.395C688.801 499.395 688.376 499.282 688.002 499.067L685.018 497.408C684.681 497.219 684.305 497.111 683.919 497.095C683.532 497.079 683.148 497.154 682.796 497.314L679.959 498.608C679.64 498.751 679.294 498.825 678.945 498.826C678.595 498.827 678.249 498.754 677.929 498.612C677.609 498.47 677.323 498.263 677.089 498.004C676.854 497.744 676.677 497.438 676.569 497.106L674.733 491.641C674.576 491.139 674.263 490.701 673.838 490.391C673.414 490.081 672.901 489.916 672.376 489.92H669.705C669.285 489.921 668.872 489.814 668.506 489.607L658.252 483.985C657.834 483.76 657.361 483.659 656.887 483.694C656.414 483.729 655.961 483.899 655.581 484.184L648.06 489.816C647.633 490.136 647.113 490.308 646.579 490.306H637.118C636.631 490.306 636.155 490.451 635.752 490.723L633.978 491.901C633.686 492.097 633.356 492.228 633.01 492.286C632.664 492.344 632.309 492.328 631.97 492.238C631.63 492.148 631.313 491.987 631.041 491.765C630.769 491.544 630.547 491.266 630.39 490.952L629.962 490.108C629.759 489.694 629.444 489.346 629.054 489.103C628.663 488.859 628.211 488.731 627.751 488.731H623.005C622.628 488.732 622.256 488.818 621.918 488.985C621.58 489.151 621.284 489.392 621.054 489.69L618.112 493.455C617.869 493.768 617.553 494.017 617.193 494.182C616.833 494.347 616.438 494.423 616.042 494.403C615.647 494.384 615.262 494.269 614.919 494.07C614.577 493.871 614.288 493.592 614.075 493.257L613.241 491.954C612.897 491.408 612.352 491.018 611.724 490.87C611.095 490.722 610.434 490.826 609.882 491.161L607.441 492.621C607.026 492.869 606.547 492.991 606.063 492.971C605.579 492.95 605.112 492.789 604.719 492.506L594.882 485.383C594.706 485.259 594.517 485.154 594.319 485.07L586.631 482.118C586.032 481.901 585.373 481.922 584.79 482.179C584.207 482.435 583.745 482.907 583.502 483.495L578.15 496.532C578.073 496.716 578.02 496.908 577.994 497.106L576.262 508.85C576.186 509.346 575.96 509.808 575.616 510.174L571.954 514.106C571.575 514.507 571.073 514.771 570.527 514.856C569.981 514.941 569.423 514.842 568.94 514.575L562.587 511.05C562.271 510.873 561.92 510.768 561.559 510.742C561.197 510.715 560.835 510.769 560.496 510.898C560.158 511.027 559.852 511.23 559.601 511.49C559.349 511.751 559.158 512.063 559.04 512.406L555.014 524.181C554.923 524.439 554.877 524.711 554.878 524.984V532.41C554.877 532.891 554.735 533.362 554.47 533.764C554.205 534.166 553.829 534.482 553.387 534.673L546.93 537.531C546.571 537.685 546.181 537.753 545.791 537.727C545.401 537.702 545.023 537.585 544.687 537.385L539.826 534.527C539.342 534.244 538.775 534.133 538.22 534.214L529.697 535.435C529.21 535.504 528.713 535.426 528.27 535.211C527.828 534.995 527.46 534.651 527.215 534.225L525.775 531.763C525.464 531.233 524.966 530.838 524.377 530.658L520.507 529.448C520.056 529.304 519.573 529.294 519.116 529.418C518.659 529.542 518.248 529.795 517.931 530.147L512.559 536.112C512.135 536.58 511.55 536.871 510.921 536.926L502.993 537.593C502.626 537.614 502.268 537.721 501.95 537.906L488.129 545.854C487.697 546.099 487.203 546.209 486.708 546.17C486.213 546.131 485.742 545.944 485.354 545.635L481.432 542.506C480.993 542.157 480.449 541.966 479.888 541.963H465.034C464.663 541.965 464.297 541.882 463.963 541.721C463.628 541.56 463.335 541.326 463.104 541.035L459.36 536.363C459.135 536.084 458.853 535.856 458.532 535.697C458.211 535.538 457.859 535.45 457.501 535.44C457.143 535.43 456.787 535.498 456.457 535.64C456.128 535.781 455.833 535.992 455.594 536.258L451.088 541.265C450.68 541.717 450.453 542.304 450.451 542.913V605.115C450.451 605.77 450.712 606.399 451.175 606.863C451.639 607.326 452.268 607.586 452.924 607.586H988.807C989.132 607.586 989.455 607.522 989.755 607.397C990.056 607.272 990.329 607.089 990.558 606.859C990.788 606.628 990.97 606.354 991.094 606.053C991.217 605.752 991.28 605.43 991.279 605.104L991.133 408.684C991.14 408.186 990.998 407.698 990.724 407.282C990.451 406.867 990.058 406.543 989.599 406.353C989.139 406.163 988.632 406.116 988.145 406.217C987.658 406.318 987.212 406.564 986.866 406.921V406.921Z" fill="#C37603"/>
<path opacity="0.3" d="M986.387 487.469L978.313 492.851C978.029 493.042 977.779 493.278 977.572 493.549L972.555 500.172C972.251 500.565 971.857 500.879 971.407 501.089C970.958 501.3 970.464 501.4 969.968 501.382L968.33 501.299C967.768 501.271 967.224 501.088 966.759 500.772C966.293 500.456 965.924 500.017 965.691 499.505L964.648 497.283C964.415 496.761 964.04 496.316 963.565 495.997C963.091 495.678 962.536 495.5 961.965 495.481C961.394 495.463 960.829 495.605 960.335 495.892C959.841 496.18 959.438 496.6 959.172 497.106L957.085 501.1C956.825 501.59 956.436 502 955.96 502.285C955.483 502.57 954.939 502.719 954.384 502.717H944.036C943.354 502.72 942.69 502.493 942.153 502.073C941.615 501.653 941.235 501.064 941.073 500.402L938.591 490.462C938.453 489.908 938.162 489.404 937.752 489.007C937.342 488.61 936.829 488.335 936.27 488.215C935.712 488.094 935.131 488.132 934.594 488.325C934.056 488.518 933.584 488.857 933.229 489.305L918.312 508.161C917.892 508.697 917.303 509.076 916.641 509.237C915.978 509.398 915.281 509.331 914.662 509.048L905.075 504.72C904.573 504.485 904.017 504.391 903.466 504.448C902.915 504.505 902.389 504.71 901.946 505.043L898.514 507.577C898.35 507.7 898.199 507.84 898.065 507.994L889.011 518.017C888.707 518.366 888.327 518.641 887.9 518.822C887.474 519.003 887.012 519.084 886.549 519.06L880.635 518.685C880.313 518.665 879.989 518.694 879.675 518.768L874.345 520.134C873.737 520.293 873.095 520.26 872.507 520.04C871.919 519.819 871.413 519.423 871.059 518.904L870.454 518.007C870.165 517.586 869.774 517.244 869.319 517.012C868.863 516.781 868.357 516.668 867.846 516.682L861.9 516.86C861.214 516.871 860.554 517.122 860.033 517.569L858.573 518.789C858.227 519.079 857.821 519.289 857.385 519.404C856.948 519.519 856.491 519.535 856.047 519.453C855.604 519.37 855.184 519.19 854.818 518.925C854.452 518.661 854.149 518.319 853.931 517.923L852.387 515.128C852.011 514.445 851.387 513.932 850.645 513.693C849.902 513.455 849.096 513.509 848.392 513.845L838.388 518.653L827.321 524.369C826.96 524.555 826.565 524.666 826.16 524.696C825.755 524.727 825.348 524.676 824.963 524.546L816.149 521.626C815.753 521.496 815.334 521.446 814.918 521.48L797.853 522.93C797.274 522.989 796.723 523.21 796.262 523.565C795.802 523.921 795.449 524.398 795.245 524.943L792.773 531.847C792.623 532.262 792.386 532.639 792.077 532.954C791.768 533.268 791.394 533.512 790.982 533.669C790.57 533.825 790.129 533.891 789.689 533.861C789.249 533.831 788.82 533.706 788.433 533.495L788.329 533.443C787.695 533.091 786.957 532.978 786.247 533.123C785.538 533.269 784.903 533.663 784.459 534.235L782.519 536.718C782.004 537.364 781.254 537.78 780.433 537.875L775.092 538.449C774.791 538.479 774.495 538.553 774.216 538.668L765.756 542.287C765.375 542.443 764.968 542.525 764.556 542.527H760.488C759.99 542.527 759.5 542.405 759.06 542.172C758.62 541.94 758.244 541.603 757.964 541.192L757.38 540.337C757.013 539.802 756.486 539.398 755.875 539.182C755.264 538.966 754.6 538.951 753.979 539.137L744.497 542.005C743.847 542.201 743.149 542.175 742.515 541.932L738.113 540.243C737.781 540.112 737.427 540.041 737.07 540.034H727.619C727.21 540.034 726.805 540.119 726.43 540.284L717.042 544.269C716.382 544.553 715.643 544.594 714.956 544.383L710.314 542.996C709.862 542.861 709.385 542.833 708.92 542.912C708.455 542.992 708.014 543.178 707.633 543.455L705.599 544.946C704.983 545.397 704.221 545.601 703.462 545.518C702.704 545.435 702.004 545.071 701.5 544.498L701.197 544.154C700.787 543.686 700.243 543.354 699.639 543.203C699.035 543.052 698.4 543.089 697.817 543.309L690.255 546.198C689.581 546.444 688.842 546.444 688.168 546.198L684.851 545.009C684.246 544.8 683.59 544.782 682.974 544.957L679.844 545.864C679.159 546.062 678.426 546.014 677.773 545.728C677.119 545.442 676.587 544.937 676.266 544.3L675.098 541.953C674.843 541.446 674.453 541.02 673.971 540.722C673.488 540.424 672.932 540.265 672.365 540.264H669.653C669.298 540.27 668.945 540.213 668.61 540.097L658.085 536.405C657.706 536.269 657.305 536.211 656.904 536.232C656.503 536.254 656.11 536.355 655.748 536.53L648.06 540.222C647.646 540.418 647.194 540.522 646.736 540.524H637.024C636.613 540.526 636.205 540.608 635.825 540.764L633.843 541.619C633.223 541.883 632.533 541.934 631.881 541.766C631.228 541.599 630.65 541.221 630.233 540.691V540.691C629.948 540.324 629.583 540.027 629.165 539.822C628.748 539.618 628.289 539.512 627.824 539.513H622.921C622.214 539.512 621.529 539.755 620.981 540.201L618.133 542.537C617.548 543.022 616.802 543.269 616.043 543.231C615.284 543.192 614.567 542.87 614.034 542.329L613.387 541.682C612.969 541.262 612.438 540.972 611.858 540.847C611.279 540.723 610.675 540.771 610.122 540.983L607.285 542.078C606.509 542.368 605.65 542.338 604.896 541.995L594.913 537.364C594.737 537.28 594.551 537.217 594.36 537.176L586.527 535.247C585.909 535.093 585.258 535.136 584.666 535.372C584.075 535.608 583.572 536.024 583.23 536.561L578.307 544.237C578.118 544.532 577.981 544.856 577.9 545.197L576.408 551.715C576.23 552.46 575.784 553.113 575.157 553.551L571.902 555.783C571.506 556.056 571.05 556.23 570.573 556.292C570.096 556.354 569.611 556.301 569.159 556.137L562.462 553.76C561.762 553.512 560.995 553.528 560.306 553.805C559.617 554.081 559.052 554.599 558.717 555.261L555.191 561.853C554.959 562.297 554.838 562.791 554.837 563.292V566.265C554.834 566.932 554.613 567.58 554.209 568.111C553.804 568.642 553.237 569.026 552.594 569.206L546.731 570.833C546.11 571.009 545.447 570.98 544.843 570.749L539.732 568.82C539.301 568.654 538.837 568.59 538.376 568.632L529.562 569.435C529.092 569.481 528.618 569.416 528.178 569.246C527.738 569.075 527.344 568.805 527.027 568.455L525.984 567.297C525.549 566.81 524.966 566.48 524.325 566.358L520.309 565.545C519.899 565.467 519.477 565.472 519.068 565.56C518.66 565.648 518.273 565.816 517.931 566.056L512.642 569.821C512.169 570.154 511.613 570.349 511.036 570.384L502.931 570.812C502.624 570.831 502.322 570.894 502.034 571L487.962 576.214C487.568 576.364 487.147 576.428 486.726 576.403C486.305 576.378 485.895 576.264 485.521 576.068L481.453 573.983C481.023 573.763 480.548 573.649 480.066 573.649H464.94C464.242 573.649 463.564 573.409 463.021 572.971L459.36 570.04C458.841 569.625 458.2 569.39 457.536 569.371C456.871 569.352 456.219 569.55 455.677 569.936L451.755 572.731C451.359 573.015 451.035 573.389 450.812 573.822C450.589 574.256 450.472 574.736 450.472 575.224V604.541C450.472 605.352 450.794 606.129 451.367 606.702C451.941 607.275 452.718 607.597 453.529 607.597H988.223C989.033 607.597 989.81 607.275 990.384 606.702C990.957 606.129 991.279 605.352 991.279 604.541L991.133 490.056C991.14 489.5 990.996 488.952 990.715 488.472C990.434 487.992 990.028 487.598 989.539 487.332C989.051 487.066 988.5 486.938 987.944 486.962C987.388 486.986 986.85 487.162 986.387 487.469V487.469Z" fill="#C37603"/>
<path d="M988.546 493.998C992.578 493.998 995.848 490.729 995.848 486.697C995.848 482.665 992.578 479.396 988.546 479.396C984.513 479.396 981.244 482.665 981.244 486.697C981.244 490.729 984.513 493.998 988.546 493.998Z" fill="#C37603"/>
<path opacity="0.3" d="M988.076 558.922L978.156 562.228C977.966 562.294 977.784 562.381 977.614 562.489L972.169 566.087C971.773 566.346 971.307 566.477 970.834 566.463L967.443 566.379C967.128 566.373 966.817 566.302 966.53 566.171C966.243 566.04 965.986 565.852 965.775 565.618L963.688 563.323C963.481 563.094 963.23 562.909 962.95 562.778C962.67 562.646 962.367 562.572 962.058 562.56C961.749 562.547 961.441 562.596 961.151 562.704C960.862 562.812 960.596 562.976 960.371 563.188L956.856 566.484C956.429 566.892 955.861 567.12 955.27 567.12H943.087C942.652 567.123 942.226 567.003 941.857 566.774C941.488 566.545 941.191 566.217 941 565.827L938.215 560.268C938.07 559.978 937.866 559.721 937.615 559.515C937.365 559.308 937.075 559.157 936.762 559.069C936.45 558.982 936.123 558.961 935.802 559.007C935.481 559.054 935.173 559.167 934.898 559.339L917.655 570.259C917.133 570.586 916.504 570.694 915.903 570.562L904.095 567.902C903.658 567.799 903.201 567.828 902.78 567.985L898.472 569.581C898.359 569.617 898.25 569.666 898.149 569.727L888.625 575.005C888.258 575.205 887.844 575.306 887.426 575.297L880.374 575.067C880.253 575.056 880.13 575.056 880.009 575.067L873.229 575.933C872.638 576.005 872.043 575.852 871.56 575.505L870.183 574.462C869.776 574.162 869.281 574.004 868.775 574.014L861.337 574.118C861.04 574.118 860.745 574.179 860.471 574.295L857.133 575.703C856.725 575.872 856.276 575.922 855.84 575.846C855.405 575.77 854.999 575.573 854.672 575.276L851.939 572.856C851.66 572.605 851.324 572.426 850.961 572.333C850.598 572.24 850.217 572.237 849.852 572.324L838.441 575.078L826.705 578.113C826.389 578.18 826.062 578.18 825.746 578.113L815.836 576.465C815.676 576.454 815.516 576.454 815.356 576.465L797.029 577.289C796.677 577.304 796.334 577.4 796.025 577.568C795.716 577.736 795.449 577.972 795.245 578.259L792.481 582.065C792.205 582.452 791.816 582.745 791.369 582.903C790.921 583.062 790.435 583.079 789.977 582.952L787.025 582.138C786.711 582.056 786.382 582.039 786.061 582.089C785.74 582.139 785.432 582.256 785.158 582.43L782.206 584.318C781.866 584.529 781.479 584.651 781.079 584.673L774.821 585.017C774.703 585.007 774.584 585.007 774.466 585.017L765.432 586.946C765.271 586.979 765.107 586.997 764.942 586.999H759.643C759.151 586.999 758.673 586.841 758.277 586.55L756.9 585.507C756.657 585.326 756.381 585.195 756.087 585.122C755.794 585.048 755.488 585.034 755.189 585.08L743.913 586.769C743.654 586.811 743.39 586.811 743.131 586.769L737.831 585.726C737.686 585.711 737.539 585.711 737.393 585.726H727.223C727.063 585.711 726.903 585.711 726.743 585.726L716.427 587.916C716.151 587.969 715.868 587.969 715.592 587.916L709.448 586.988C709.061 586.935 708.667 586.978 708.301 587.113L704.358 588.553C704.04 588.671 703.701 588.718 703.364 588.689C703.026 588.66 702.7 588.556 702.407 588.386L700.54 587.343C700.066 587.063 699.505 586.967 698.965 587.072L689.577 588.855C689.297 588.907 689.011 588.907 688.732 588.855L684.215 588.052C683.969 588.016 683.72 588.016 683.474 588.052L678.488 588.772C678.132 588.826 677.768 588.796 677.425 588.684C677.083 588.571 676.771 588.38 676.517 588.125L674.869 586.55C674.428 586.119 673.837 585.876 673.22 585.872H669.267C669.135 585.883 669.003 585.883 668.871 585.872L657.334 583.849C657.021 583.781 656.697 583.781 656.385 583.849L647.664 585.935C647.486 585.977 647.304 585.998 647.122 585.997H636.617C636.458 585.981 636.297 585.981 636.137 585.997L632.58 586.759C631.981 586.925 631.341 586.85 630.797 586.55L629.816 585.914C629.442 585.676 629.008 585.549 628.564 585.549H622.212C621.911 585.55 621.613 585.611 621.336 585.726L616.892 587.541C616.586 587.669 616.256 587.729 615.924 587.716C615.593 587.703 615.268 587.619 614.973 587.468L612.615 586.279C612.157 586.05 611.637 585.976 611.134 586.07L606.482 586.967C606.165 587.035 605.838 587.035 605.522 586.967L594.736 584.464H594.496L585.327 583.327C584.716 583.258 584.102 583.43 583.616 583.807L578.401 587.854C578.109 588.08 577.876 588.373 577.723 588.709L576.554 591.306C576.422 591.592 576.234 591.848 576.001 592.059C575.768 592.271 575.495 592.433 575.198 592.537L571.193 593.903C570.822 594.038 570.422 594.07 570.035 593.997L561.127 592.412C560.771 592.35 560.406 592.372 560.061 592.475C559.715 592.578 559.398 592.76 559.134 593.006L555.598 596.312C555.366 596.53 555.181 596.794 555.056 597.086C554.93 597.379 554.866 597.694 554.868 598.012C554.868 598.572 554.665 599.113 554.297 599.535C553.929 599.957 553.42 600.231 552.865 600.307L546.179 601.235C545.93 601.277 545.676 601.277 545.428 601.235L539.377 600.088C539.197 600.067 539.015 600.067 538.835 600.088L528.727 600.547C528.303 600.563 527.881 600.466 527.507 600.265L525.733 599.295C525.461 599.139 525.159 599.043 524.847 599.014L519.537 598.482C519.185 598.445 518.828 598.488 518.494 598.607L512.235 600.828C512.004 600.91 511.761 600.956 511.516 600.964L502.618 601.204C502.496 601.193 502.374 601.193 502.253 601.204L487.18 603.988C486.853 604.056 486.516 604.056 486.189 603.988L481.057 602.674C480.865 602.629 480.669 602.604 480.472 602.601H464.294C463.997 602.604 463.702 602.548 463.428 602.434L458.358 600.411C457.828 600.208 457.241 600.208 456.71 600.411L451.995 602.09C451.543 602.248 451.152 602.543 450.875 602.934C450.599 603.324 450.45 603.791 450.451 604.27V605.313C450.45 605.618 450.509 605.92 450.625 606.202C450.74 606.484 450.911 606.741 451.126 606.957C451.341 607.173 451.597 607.345 451.878 607.462C452.16 607.579 452.462 607.639 452.767 607.639H988.932C989.237 607.639 989.539 607.579 989.82 607.462C990.102 607.345 990.358 607.173 990.573 606.957C990.788 606.741 990.958 606.484 991.074 606.202C991.19 605.92 991.249 605.618 991.247 605.313L991.112 561.227C991.126 560.853 991.051 560.482 990.891 560.143C990.731 559.805 990.492 559.511 990.194 559.284C989.896 559.058 989.548 558.907 989.18 558.844C988.811 558.781 988.433 558.808 988.076 558.922V558.922Z" fill="#C37603"/>
<path d="M586.944 543.017C590.977 543.017 594.246 539.748 594.246 535.716C594.246 531.684 590.977 528.416 586.944 528.416C582.911 528.416 579.642 531.684 579.642 535.716C579.642 539.748 582.911 543.017 586.944 543.017Z" fill="#C37603"/>
<path d="M937.433 497.127C941.466 497.127 944.735 493.858 944.735 489.826C944.735 485.794 941.466 482.525 937.433 482.525C933.4 482.525 930.131 485.794 930.131 489.826C930.131 493.858 933.4 497.127 937.433 497.127Z" fill="#C37603"/>
<path d="M755.93 546.146C759.962 546.146 763.231 542.877 763.231 538.845C763.231 534.813 759.962 531.544 755.93 531.544C751.897 531.544 748.628 534.813 748.628 538.845C748.628 542.877 751.897 546.146 755.93 546.146Z" fill="#C37603"/>
<path d="M850.854 520.072C854.886 520.072 858.156 516.803 858.156 512.771C858.156 508.739 854.886 505.47 850.854 505.47C846.821 505.47 843.552 508.739 843.552 512.771C843.552 516.803 846.821 520.072 850.854 520.072Z" fill="#C37603"/>
<path d="M992.176 489.993C992.174 489.441 992.022 488.901 991.738 488.428C991.453 487.956 991.046 487.569 990.559 487.309C990.073 487.049 989.525 486.926 988.974 486.952C988.423 486.979 987.889 487.154 987.43 487.459L979.356 492.84C979.073 493.031 978.822 493.267 978.615 493.539L973.598 500.162C973.294 500.554 972.9 500.869 972.45 501.079C972.001 501.289 971.507 501.39 971.011 501.372L969.373 501.288C968.811 501.26 968.267 501.078 967.802 500.762C967.336 500.445 966.967 500.007 966.734 499.494L965.691 497.273C965.458 496.751 965.083 496.305 964.608 495.987C964.134 495.668 963.58 495.489 963.008 495.471C962.437 495.452 961.872 495.595 961.378 495.882C960.884 496.169 960.481 496.59 960.215 497.096L958.128 501.09C957.868 501.58 957.479 501.99 957.003 502.274C956.527 502.559 955.982 502.709 955.427 502.707H945.079C944.397 502.71 943.733 502.483 943.196 502.063C942.658 501.643 942.278 501.054 942.116 500.391L939.634 490.452C939.496 489.898 939.205 489.394 938.795 488.996C938.385 488.599 937.872 488.325 937.313 488.204C936.755 488.084 936.175 488.122 935.637 488.315C935.099 488.507 934.627 488.847 934.272 489.294L919.356 508.151C918.935 508.687 918.346 509.066 917.684 509.227C917.021 509.388 916.324 509.321 915.705 509.037L906.118 504.709C905.616 504.474 905.06 504.38 904.509 504.437C903.958 504.494 903.432 504.7 902.989 505.032L899.557 507.567C899.393 507.689 899.243 507.829 899.109 507.984L890.054 518.007C889.75 518.356 889.37 518.631 888.943 518.812C888.517 518.992 888.055 519.074 887.592 519.05L881.678 518.674C881.356 518.655 881.032 518.683 880.718 518.758L875.388 520.124C874.78 520.283 874.138 520.25 873.55 520.029C872.962 519.809 872.456 519.412 872.102 518.893L871.497 517.996C871.208 517.575 870.818 517.233 870.362 517.002C869.906 516.771 869.4 516.657 868.889 516.672L862.943 516.849C862.257 516.861 861.597 517.111 861.076 517.558L859.616 518.779C859.27 519.069 858.864 519.279 858.428 519.394C857.991 519.508 857.534 519.525 857.09 519.442C856.647 519.359 856.227 519.179 855.861 518.915C855.495 518.651 855.192 518.308 854.974 517.913L853.43 515.118C853.054 514.435 852.43 513.921 851.688 513.683C850.945 513.444 850.139 513.499 849.435 513.835L839.432 518.643L828.364 524.358C828.003 524.544 827.608 524.656 827.203 524.686C826.798 524.716 826.391 524.665 826.007 524.536L817.192 521.615C816.796 521.485 816.377 521.436 815.961 521.469L798.896 522.93C798.317 522.99 797.766 523.21 797.306 523.565C796.845 523.921 796.493 524.398 796.288 524.943L793.816 531.847C793.666 532.262 793.429 532.639 793.12 532.954C792.811 533.268 792.437 533.512 792.025 533.669C791.613 533.825 791.172 533.891 790.732 533.861C790.292 533.831 789.864 533.706 789.476 533.495L789.372 533.443C788.739 533.091 788 532.978 787.291 533.123C786.581 533.269 785.946 533.663 785.502 534.235L783.562 536.718C783.047 537.364 782.297 537.78 781.476 537.875L776.135 538.449C775.834 538.479 775.539 538.553 775.259 538.668L766.799 542.287C766.418 542.443 766.011 542.525 765.599 542.527H761.531C761.034 542.527 760.543 542.405 760.103 542.172C759.664 541.94 759.287 541.603 759.007 541.192L758.423 540.337C758.056 539.802 757.529 539.398 756.918 539.182C756.307 538.966 755.643 538.951 755.022 539.137L745.54 542.005C744.89 542.201 744.192 542.175 743.558 541.932L739.156 540.243C738.824 540.112 738.47 540.041 738.113 540.034H728.662C728.253 540.034 727.848 540.119 727.473 540.284L718.085 544.269C717.425 544.553 716.686 544.594 715.999 544.383L711.357 542.996C710.905 542.861 710.428 542.833 709.963 542.912C709.498 542.992 709.058 543.178 708.676 543.455L706.642 544.946C706.026 545.397 705.264 545.601 704.505 545.518C703.747 545.435 703.047 545.071 702.543 544.498L702.24 544.154C701.83 543.686 701.286 543.354 700.682 543.203C700.078 543.052 699.443 543.089 698.86 543.309L691.298 546.198C690.624 546.444 689.885 546.444 689.212 546.198L685.894 545.009C685.289 544.8 684.633 544.782 684.017 544.957L680.887 545.864C680.202 546.062 679.469 546.014 678.816 545.728C678.163 545.442 677.63 544.937 677.31 544.3L676.141 541.953C675.886 541.446 675.496 541.02 675.014 540.722C674.531 540.424 673.975 540.265 673.408 540.264H670.696C670.341 540.27 669.988 540.213 669.653 540.097L659.128 536.405C658.75 536.269 658.348 536.211 657.947 536.232C657.546 536.254 657.153 536.355 656.791 536.53L649.103 540.222C648.689 540.418 648.237 540.522 647.779 540.524H638.067C637.656 540.526 637.248 540.608 636.868 540.764L634.886 541.619C634.266 541.883 633.576 541.934 632.924 541.766C632.272 541.599 631.693 541.221 631.277 540.691C630.991 540.324 630.626 540.027 630.208 539.822C629.791 539.618 629.332 539.512 628.867 539.513H623.964C623.257 539.512 622.572 539.755 622.024 540.201L619.176 542.537C618.591 543.022 617.845 543.269 617.086 543.231C616.327 543.192 615.61 542.87 615.077 542.329L614.43 541.682C614.012 541.262 613.481 540.972 612.901 540.847C612.322 540.723 611.718 540.771 611.165 540.983L608.328 542.078C607.552 542.368 606.693 542.338 605.939 541.995L595.956 537.364C595.78 537.28 595.595 537.217 595.404 537.176L587.57 535.247C586.952 535.093 586.301 535.136 585.709 535.372C585.118 535.608 584.616 536.024 584.273 536.561L579.35 544.237C579.162 544.532 579.024 544.856 578.943 545.197L577.451 551.715C577.273 552.46 576.827 553.113 576.2 553.551L572.945 555.783C572.549 556.056 572.093 556.23 571.616 556.292C571.139 556.354 570.654 556.301 570.202 556.137L563.505 553.76C562.805 553.512 562.039 553.528 561.349 553.805C560.66 554.081 560.095 554.599 559.76 555.261L556.234 561.853C556.002 562.297 555.881 562.791 555.88 563.292V566.265C555.877 566.932 555.656 567.58 555.252 568.111C554.847 568.642 554.28 569.026 553.637 569.206L547.775 570.833C547.153 571.009 546.491 570.979 545.887 570.749L540.775 568.82C540.344 568.654 539.88 568.59 539.419 568.632L530.605 569.435C530.135 569.481 529.661 569.416 529.221 569.246C528.781 569.075 528.387 568.805 528.07 568.455L527.027 567.297C526.593 566.81 526.009 566.48 525.368 566.358L521.352 565.545C520.942 565.467 520.52 565.472 520.111 565.56C519.703 565.648 519.316 565.816 518.974 566.056L513.685 569.821C513.212 570.154 512.656 570.349 512.079 570.384L503.974 570.812C503.667 570.831 503.365 570.894 503.077 571L489.005 576.214C488.611 576.364 488.19 576.428 487.769 576.403C487.348 576.378 486.938 576.264 486.564 576.068L482.496 573.983C482.066 573.763 481.591 573.649 481.109 573.649H465.983C465.285 573.649 464.608 573.409 464.064 572.971L460.403 570.04C459.884 569.625 459.244 569.39 458.579 569.371C457.915 569.352 457.262 569.55 456.72 569.936L452.798 572.731C452.402 573.015 452.078 573.389 451.855 573.822C451.632 574.256 451.516 574.736 451.515 575.224" stroke="#FFB800" stroke-miterlimit="10"/>
<path opacity="0.2" d="M1030.27 650.39H420.044V650.494H1030.27V650.39Z" fill="#F2F2F2"/>
<path opacity="0.3" d="M513.925 655.657C516.806 655.657 519.141 653.322 519.141 650.442C519.141 647.562 516.806 645.227 513.925 645.227C511.045 645.227 508.71 647.562 508.71 650.442C508.71 653.322 511.045 655.657 513.925 655.657Z" fill="#C37603"/>
<path opacity="0.3" d="M590.073 655.657C592.954 655.657 595.289 653.322 595.289 650.442C595.289 647.562 592.954 645.227 590.073 645.227C587.193 645.227 584.858 647.562 584.858 650.442C584.858 653.322 587.193 655.657 590.073 655.657Z" fill="#C37603"/>
<path opacity="0.3" d="M666.221 655.657C669.102 655.657 671.437 653.322 671.437 650.442C671.437 647.562 669.102 645.227 666.221 645.227C663.341 645.227 661.005 647.562 661.005 650.442C661.005 653.322 663.341 655.657 666.221 655.657Z" fill="#C37603"/>
<path opacity="0.3" d="M742.369 655.657C745.249 655.657 747.585 653.322 747.585 650.442C747.585 647.562 745.249 645.227 742.369 645.227C739.488 645.227 737.153 647.562 737.153 650.442C737.153 653.322 739.488 655.657 742.369 655.657Z" fill="#C37603"/>
<path opacity="0.3" d="M818.517 655.657C821.397 655.657 823.732 653.322 823.732 650.442C823.732 647.562 821.397 645.227 818.517 645.227C815.636 645.227 813.301 647.562 813.301 650.442C813.301 653.322 815.636 655.657 818.517 655.657Z" fill="#C37603"/>
<path opacity="0.3" d="M894.665 655.657C897.545 655.657 899.88 653.322 899.88 650.442C899.88 647.562 897.545 645.227 894.665 645.227C891.784 645.227 889.449 647.562 889.449 650.442C889.449 653.322 891.784 655.657 894.665 655.657Z" fill="#C37603"/>
<path opacity="0.3" d="M970.813 655.657C973.693 655.657 976.028 653.322 976.028 650.442C976.028 647.562 973.693 645.227 970.813 645.227C967.932 645.227 965.597 647.562 965.597 650.442C965.597 653.322 967.932 655.657 970.813 655.657Z" fill="#C37603"/>
<path d="M377.036 851.545C373.907 845.799 377.454 838.759 381.511 833.638C385.569 828.517 390.493 823.208 390.388 816.648C390.232 807.261 380.27 801.713 372.311 796.738C366.4 793.043 360.951 788.656 356.08 783.67C354.041 781.752 352.354 779.493 351.094 776.995C349.446 773.323 349.488 769.152 349.592 765.136C349.947 751.731 350.611 738.35 351.584 724.993" stroke="#3F3D56" stroke-width="4" stroke-miterlimit="10"/>
<path d="M336.449 724.283C336.559 721.832 337.287 719.448 338.563 717.351C339.839 715.255 341.623 713.514 343.75 712.289L347.026 718.766L346.921 710.923C348.488 710.464 350.12 710.267 351.751 710.339C354.632 710.482 357.407 711.475 359.724 713.192C362.042 714.91 363.798 717.275 364.773 719.99C365.748 722.705 365.896 725.647 365.2 728.446C364.504 731.245 362.994 733.776 360.861 735.718C358.728 737.66 356.068 738.927 353.216 739.359C350.364 739.791 347.447 739.369 344.835 738.146C342.222 736.923 340.031 734.954 338.536 732.486C337.042 730.019 336.312 727.165 336.438 724.283H336.449Z" fill="#57B894"/>
<path d="M362.558 823.354C364.093 826.33 366.605 828.688 369.673 830.032C372.74 831.377 376.177 831.626 379.406 830.739C382.635 829.851 385.462 827.881 387.411 825.158C389.36 822.435 390.314 819.125 390.113 815.782C389.912 812.44 388.568 809.268 386.306 806.798C384.044 804.329 381.002 802.711 377.689 802.218C374.377 801.724 370.995 802.383 368.111 804.086C365.227 805.788 363.016 808.43 361.849 811.569L370.997 819.005L360.931 816.679C360.934 819.002 361.492 821.29 362.558 823.354Z" fill="#57B894"/>
<path d="M369.787 794.933C373.424 795.19 377.026 794.077 379.884 791.813C382.743 789.549 384.65 786.298 385.232 782.698C385.814 779.099 385.028 775.412 383.029 772.363C381.03 769.314 377.962 767.123 374.429 766.221L374.512 772.249L371.195 765.689C369.274 765.595 367.354 765.881 365.544 766.531C363.734 767.181 362.07 768.183 360.649 769.477C359.227 770.772 358.075 772.335 357.258 774.076C356.442 775.817 355.978 777.702 355.892 779.623C355.807 781.312 356.018 783.003 356.518 784.619C357.398 787.495 359.145 790.029 361.52 791.876C363.895 793.722 366.782 794.79 369.787 794.933V794.933Z" fill="#57B894"/>
<path d="M334.248 771.29C336.495 771.372 338.731 770.935 340.781 770.012C342.831 769.088 344.641 767.704 346.068 765.967C347.496 764.229 348.503 762.186 349.01 759.995C349.518 757.805 349.513 755.527 348.996 753.339C348.479 751.151 347.463 749.112 346.028 747.381C344.593 745.65 342.778 744.273 340.723 743.359C338.669 742.444 336.431 742.017 334.184 742.109C331.937 742.201 329.742 742.811 327.77 743.891L330.357 750.983L325.037 745.873C322.186 748.483 320.487 752.118 320.311 755.979C320.242 757.335 320.365 758.694 320.677 760.015C321.407 763.113 323.127 765.889 325.575 767.923C328.023 769.957 331.068 771.139 334.248 771.29V771.29Z" fill="#57B894"/>
<path opacity="0.1" d="M338.42 728.184C341.8 728.549 345.086 729.603 348.476 729.811C351.866 730.02 355.59 729.206 357.739 726.578C358.886 725.16 359.47 723.355 360.44 721.812C361.367 720.368 362.635 719.175 364.133 718.339C365.016 720.185 365.502 722.196 365.557 724.242C365.613 726.287 365.238 728.322 364.457 730.213C363.676 732.105 362.506 733.811 361.022 735.221C359.539 736.632 357.776 737.714 355.847 738.399C353.918 739.084 351.867 739.356 349.826 739.197C347.786 739.039 345.801 738.453 344.002 737.478C342.202 736.503 340.628 735.16 339.38 733.538C338.133 731.915 337.241 730.049 336.761 728.059C337.318 728.08 337.871 728.122 338.42 728.184Z" fill="black"/>
<path opacity="0.1" d="M334.247 771.29C336.772 771.418 339.287 770.888 341.546 769.753C343.805 768.618 345.73 766.916 347.134 764.813C348.537 762.711 349.371 760.28 349.553 757.759C349.735 755.238 349.26 752.713 348.173 750.43C347.012 751.211 346.013 752.21 345.232 753.372C344.188 754.946 343.552 756.761 342.332 758.211C340.047 760.891 336.156 761.767 332.62 761.611C329.084 761.454 325.673 760.443 322.189 760.119C321.699 760.119 321.208 760.047 320.708 760.036C321.441 763.125 323.157 765.893 325.599 767.922C328.041 769.952 331.076 771.134 334.247 771.29V771.29Z" fill="black"/>
<path opacity="0.1" d="M369.787 794.934C372.293 795.064 374.792 794.546 377.04 793.43C379.288 792.313 381.211 790.636 382.622 788.561C384.033 786.485 384.885 784.081 385.096 781.58C385.308 779.079 384.87 776.566 383.827 774.283C382.612 775.076 381.552 776.083 380.698 777.255C379.561 778.862 378.851 780.708 377.568 782.189C375.096 784.942 370.944 785.912 367.21 785.818C363.476 785.724 360.086 784.859 356.487 784.577C357.361 787.466 359.11 790.013 361.491 791.868C363.873 793.722 366.771 794.793 369.787 794.934V794.934Z" fill="black"/>
<path opacity="0.1" d="M362.558 823.354C364.142 826.893 367.067 829.659 370.69 831.042C374.313 832.424 378.337 832.312 381.876 830.728C385.416 829.144 388.182 826.22 389.565 822.597C390.948 818.975 390.835 814.952 389.251 811.412C388.043 812.199 386.96 813.162 386.039 814.27C384.641 815.97 383.723 817.9 382.116 819.485C379.123 822.426 374.293 823.657 369.985 823.751C367.504 823.761 365.024 823.628 362.558 823.354V823.354Z" fill="black"/>
<path d="M399.119 844.933C399.119 844.933 387.561 844.578 384.077 842.096C380.593 839.614 366.344 836.662 365.447 840.636C364.55 844.61 348.079 860.452 361.118 860.515C374.157 860.577 391.431 858.481 394.915 856.343C398.399 854.205 399.119 844.933 399.119 844.933Z" fill="#656380"/>
<path opacity="0.2" d="M360.889 859.128C373.938 859.232 391.202 857.104 394.676 854.956C397.325 853.339 398.379 847.551 398.733 844.891H399.119C399.119 844.891 398.389 854.205 394.947 856.364C391.505 858.523 374.199 860.619 361.15 860.536C357.384 860.536 356.091 859.169 356.164 857.188C356.654 858.356 358.083 859.107 360.889 859.128Z" fill="black"/>
<path d="M1127.32 716.555C1126.56 718.733 1126.28 721.047 1126.48 723.345C1126.99 725.639 1128.06 727.77 1129.61 729.54C1130.38 730.773 1131.59 731.676 1132.99 732.074C1133.71 732.142 1134.44 732.01 1135.1 731.692C1135.76 731.374 1136.31 730.882 1136.71 730.27C1137.49 729.037 1137.96 727.628 1138.07 726.171C1138.36 722.29 1138.17 718.386 1137.49 714.553C1137.06 711.33 1136.94 707.784 1136.09 704.665C1133.87 704.665 1131.32 704.259 1130.09 706.365C1128.51 709.108 1128.14 713.489 1127.32 716.555Z" fill="#FFC0C6"/>
<path d="M1139.42 659.14C1138.88 660.673 1138.12 662.133 1137.62 663.687C1137.14 665.305 1136.79 666.958 1136.58 668.631C1135.03 678.452 1132.94 688.18 1130.32 697.771C1129.38 700.589 1128.86 703.525 1128.75 706.49L1134.72 706.282C1135.28 706.192 1135.85 706.319 1136.32 706.637C1136.84 707.095 1137.18 708.107 1137.83 707.846C1138.95 702.115 1139.73 696.324 1140.17 690.502C1140.41 686.33 1140.3 682.242 1140.57 678.122C1141.09 669.914 1143.53 660.559 1140.34 652.622C1140.46 654.833 1140.15 657.047 1139.42 659.14V659.14Z" fill="#3F3D56"/>
<path opacity="0.1" d="M1139.42 659.14C1138.88 660.673 1138.12 662.133 1137.62 663.687C1137.14 665.305 1136.79 666.958 1136.58 668.631C1135.03 678.452 1132.94 688.18 1130.32 697.771C1129.38 700.589 1128.86 703.525 1128.75 706.49L1134.72 706.282C1135.28 706.192 1135.85 706.319 1136.32 706.637C1136.84 707.095 1137.18 708.107 1137.83 707.846C1138.95 702.115 1139.73 696.324 1140.17 690.502C1140.41 686.33 1140.3 682.242 1140.57 678.122C1141.09 669.914 1143.53 660.559 1140.34 652.622C1140.46 654.833 1140.15 657.047 1139.42 659.14V659.14Z" fill="black"/>
<path d="M1146.84 609.975C1145.38 611.227 1144.88 613.229 1144.45 615.106L1140.99 630.354C1140.19 633.838 1139.4 637.321 1138.9 640.857C1136.71 655.625 1139.25 670.811 1136.82 685.537C1136.11 688.82 1135.64 692.149 1135.42 695.498C1135.31 701.63 1137.68 707.732 1136.7 713.781C1136.37 714.855 1136.37 716.003 1136.7 717.077C1137.2 718.12 1138.89 718.453 1139.36 717.442C1139.44 717.257 1139.5 717.059 1139.52 716.858L1143.13 694.09C1143.99 688.677 1144.85 683.18 1144.25 677.726C1143.85 674.013 1142.76 670.3 1143.36 666.608C1143.75 664.779 1144.28 662.983 1144.95 661.236C1148.44 650.807 1147.96 639.47 1145.99 628.686C1145.6 627.119 1145.49 625.494 1145.66 623.888C1146.14 621.249 1148.19 619.226 1149.56 616.932C1150.61 615.2 1152.4 611.393 1151.65 609.308C1150.88 606.867 1148.31 608.713 1146.84 609.975Z" fill="#3F3D56"/>
<path d="M1152.62 830.436C1152.14 830.385 1151.65 830.472 1151.22 830.686C1150.86 830.952 1150.57 831.313 1150.4 831.729C1149.24 834.118 1148.43 836.881 1146.22 838.425C1145.12 839.118 1143.9 839.618 1142.63 839.906L1132.82 842.701C1131.56 843.056 1130.12 843.577 1129.69 844.787C1129.26 845.997 1130.18 847.478 1131.36 848.187C1133.11 849.022 1135.06 849.382 1136.99 849.23L1151.19 849.439C1152.54 849.534 1153.89 849.397 1155.2 849.032C1156.85 848.448 1158.25 847.123 1159.99 846.946C1161.41 846.789 1162.78 847.405 1164.17 847.718C1167.06 848.354 1170.05 847.718 1172.92 846.988C1173.44 846.916 1173.92 846.682 1174.31 846.32C1174.62 845.868 1174.77 845.325 1174.73 844.777C1174.85 842.347 1174.89 839.927 1174.88 837.476C1174.88 835.275 1174.62 832.72 1172.79 831.51C1171.95 831.029 1171.01 830.74 1170.05 830.665C1164.23 829.925 1158.48 830.478 1152.62 830.436Z" fill="#575A88"/>
<path d="M1190.18 861.318C1189.78 862.266 1189.27 863.165 1188.67 863.998L1182.69 873.051C1180.25 876.733 1177.73 880.675 1177.56 885.087C1181.54 886.621 1185.82 887.238 1190.08 886.891C1192.21 886.837 1194.28 886.191 1196.06 885.024C1198.63 883.137 1199.64 879.81 1200.48 876.764C1200.54 876.359 1200.74 875.988 1201.05 875.721C1201.58 875.356 1202.3 875.721 1202.95 875.586C1204.27 875.419 1204.73 873.75 1204.83 872.457C1205.09 868.332 1204.74 864.192 1203.78 860.171C1203.71 859.669 1203.49 859.2 1203.15 858.825C1202.75 858.528 1202.28 858.351 1201.78 858.314C1198.8 857.803 1195.81 857.209 1192.82 856.771C1188.87 856.134 1191.3 858.471 1190.18 861.318Z" fill="#575A88"/>
<path d="M1140.82 700.003C1137.93 703.675 1137 708.577 1137.22 713.239C1137.44 717.901 1138.72 722.448 1139.8 726.995C1141.56 734.396 1142.84 741.904 1143.62 749.471C1143.74 751.588 1144.09 753.686 1144.66 755.729C1145.17 757.314 1145.96 758.795 1146.42 760.391C1146.99 762.331 1147.04 764.396 1147.56 766.346C1148.26 768.453 1149.16 770.488 1150.25 772.427C1155.02 782.168 1156.04 793.286 1156.12 804.133C1156.12 807.063 1156.12 809.984 1156.39 812.893C1157 818.797 1158.83 825.409 1155.29 830.165C1156.19 833.398 1160.5 834.013 1163.8 833.586C1167.67 833.104 1171.46 832.086 1175.06 830.561C1174.01 828.35 1172.49 825.774 1172.56 823.26C1172.78 821.295 1173.28 819.37 1174.04 817.545C1175.93 811.809 1176.13 805.676 1176.23 799.637C1176.31 797.774 1176.28 795.908 1176.15 794.047C1175.97 792.33 1175.69 790.623 1175.32 788.937L1171.28 768.714C1170.57 765.161 1170.48 761.514 1171 757.929C1171.76 753.68 1173.2 749.58 1175.26 745.789C1180.09 736.038 1181.76 725.045 1182.71 714.198C1183.22 708.274 1183.35 701.683 1179.58 697.083C1177.25 694.427 1174.1 692.628 1170.63 691.973C1167.19 691.345 1163.68 691.208 1160.2 691.566C1153.22 692.15 1145.15 694.517 1140.82 700.003Z" fill="#3F3D56"/>
<path d="M1141.67 702.6C1140.33 707.085 1143.65 711.455 1145.36 715.815C1146.34 718.328 1146.83 721.029 1148.33 723.313C1150.19 726.098 1153.38 727.746 1155.39 730.426C1157.41 733.107 1157.99 736.246 1159.57 739.031C1161.14 741.816 1163.74 744.131 1165.2 747.03C1167.41 751.359 1167.09 756.553 1168.64 761.162C1169.75 764.469 1171.82 767.42 1172.63 770.831C1172.98 772.364 1173.07 773.96 1173.47 775.461C1174.4 779.049 1176.94 782.178 1177.2 785.891C1177.37 788.321 1176.56 790.991 1177.84 793.056C1178.61 794.318 1180.01 795.059 1180.97 796.185C1181.67 797.21 1182.18 798.355 1182.46 799.564L1184.55 806.396C1186.56 813.029 1186.79 819.881 1188.72 826.546C1190.65 833.21 1192.02 840.417 1189.76 846.988C1188.86 849.71 1187.34 852.505 1188.11 855.269C1188.43 856.246 1188.96 857.14 1189.67 857.89C1190.38 858.639 1191.24 859.225 1192.19 859.607C1194.12 860.346 1196.16 860.731 1198.22 860.744C1200.99 860.89 1203.96 860.744 1206.25 859.211C1205.12 850.833 1204.68 842.379 1204.91 833.93C1205.17 828.423 1205.95 822.937 1205.95 817.42C1205.84 813.926 1205.51 810.443 1204.96 806.99C1204.34 801.823 1203.23 796.725 1201.67 791.763C1200.79 789.545 1200.06 787.274 1199.48 784.963C1199.14 783.388 1199.04 781.771 1198.81 780.176C1198.58 778.58 1198.23 777.047 1197.89 775.409L1196.49 768.964C1196.18 767.545 1195.32 766.304 1195.26 764.855L1194.83 755.468C1194.15 740.095 1193.48 724.471 1197.18 709.578C1195.02 703.174 1191.38 696.426 1185.17 693.746C1182.62 692.725 1179.89 692.204 1177.14 692.212C1164.47 691.816 1153.12 697.25 1141.67 702.6Z" fill="#3F3D56"/>
<path d="M1151.14 597.47C1151.73 597.859 1152.28 598.318 1152.76 598.836C1153.34 599.546 1153.8 600.346 1154.12 601.204C1155.3 604.06 1156.01 607.09 1156.21 610.173C1162.98 605.422 1169.2 599.941 1174.77 593.83C1172.28 594.018 1169.99 592.234 1168.8 590.044C1167.75 587.774 1167.15 585.324 1167.02 582.827C1166.96 582.357 1160.53 585.09 1160 585.372C1157.71 586.623 1155.56 588.115 1153.32 589.45C1152.24 590.108 1151.13 590.71 1149.99 591.254C1148.95 591.734 1147.3 591.953 1146.43 592.641C1144.13 594.498 1149.72 596.479 1151.14 597.47Z" fill="#FFC0C6"/>
<path d="M1150.09 604.531C1149.83 606.544 1150.18 608.598 1149.88 610.601C1149.45 613.49 1147.79 616.003 1146.54 618.652C1143.12 626.089 1143.41 634.61 1143.25 642.786C1143.09 651.735 1142.35 660.652 1141.6 669.57L1140.24 685.892C1140 688.708 1139.76 691.545 1139.19 694.33C1138.9 695.502 1138.75 696.708 1138.77 697.917C1138.94 699.372 1139.37 700.784 1140.04 702.089C1140.66 703.826 1141.65 705.407 1142.95 706.72C1143.61 707.363 1144.46 707.781 1145.37 707.914C1146.28 708.047 1147.21 707.889 1148.03 707.46L1149.26 703.758C1149.3 705.239 1149.9 706.65 1150.94 707.71C1151.97 708.77 1153.37 709.403 1154.85 709.484C1155.91 709.446 1156.97 709.264 1157.98 708.941L1167.63 706.324C1169.72 705.852 1171.74 705.152 1173.68 704.238C1177.85 702.016 1180.65 697.844 1182.15 693.38C1183.65 688.917 1183.95 684.171 1184.13 679.478C1184.52 668.641 1184.23 657.701 1181.93 647.146C1180.97 642.713 1179.66 638.354 1178.86 633.89C1177.94 627.868 1177.49 621.783 1177.51 615.69L1177.17 600.609C1177.26 598.738 1176.95 596.87 1176.25 595.134C1175.88 594.277 1175.25 593.559 1174.44 593.081C1173.64 592.604 1172.71 592.391 1171.78 592.474C1168.89 593.016 1168.21 596.74 1166.65 599.232C1165.31 601.37 1163.07 602.747 1160.91 604.051C1159.49 604.906 1157.72 605.782 1156.26 604.99C1154.8 604.197 1154.81 601.642 1153.31 600.985C1151.31 599.91 1150.27 602.987 1150.09 604.531Z" fill="#FFD76F"/>
<path d="M1163.92 608.765C1161.18 615.753 1159.74 623.168 1158.37 630.553C1156.92 638.51 1155.61 646.677 1156.94 654.655C1159.44 669.747 1170.89 681.939 1174.8 696.728C1175.47 699.294 1175.92 701.943 1176.88 704.425C1178.37 708.597 1181.05 712.143 1183.69 715.658C1185.11 717.546 1187.21 719.663 1189.44 718.902C1191.1 718.328 1191.83 716.44 1193.09 715.21C1194.85 713.489 1197.56 713.186 1200.02 713.301C1202.48 713.416 1205 713.864 1207.39 713.301C1209.78 712.738 1212.06 710.6 1211.82 708.086C1211.66 706.511 1210.55 705.229 1209.73 703.914C1207.33 700.327 1206.41 695.967 1205.71 691.701C1201.7 667.098 1203.49 641.806 1199.23 617.244C1198.69 614.116 1198.03 610.987 1196.26 608.421C1195.4 607.331 1194.59 606.192 1193.85 605.011C1193.19 603.728 1192.89 602.236 1192.02 601.079C1190.77 599.431 1188.62 598.815 1186.65 598.179C1183.96 597.314 1181.36 596.229 1178.85 594.936C1176.95 593.955 1174.26 591.243 1172.34 592.537C1170.42 593.83 1168.97 598.346 1167.94 600.307C1166.44 603.048 1165.1 605.872 1163.92 608.765V608.765Z" fill="#3F3D56"/>
<path d="M1172.18 710.443C1170.7 710.787 1169.12 710.318 1167.63 710.652C1165.18 711.215 1163.77 713.708 1162.66 715.961C1162.26 716.657 1162 717.432 1161.92 718.234C1161.89 718.634 1162 719.033 1162.21 719.372C1162.42 719.712 1162.74 719.974 1163.11 720.122C1163.53 720.182 1163.95 720.128 1164.33 719.964C1164.72 719.8 1165.05 719.534 1165.29 719.194C1165.77 718.512 1166.33 717.892 1166.96 717.348C1168.69 716.19 1171.05 717.421 1172.4 719.006C1173.74 720.591 1174.75 722.583 1176.57 723.532C1177.62 724.002 1178.75 724.277 1179.9 724.346C1181.1 724.544 1182.33 724.544 1183.54 724.346C1184.14 724.249 1184.72 724.009 1185.21 723.646C1185.71 723.284 1186.11 722.809 1186.38 722.26C1186.65 721.54 1186.77 720.774 1186.73 720.007L1186.91 709.578C1186.98 708.967 1186.85 708.35 1186.55 707.815C1186.19 707.391 1185.7 707.086 1185.16 706.939C1183.22 706.198 1179.02 703.685 1177.07 704.947C1174.89 706.49 1175.31 709.724 1172.18 710.443Z" fill="#FFC0C6"/>
<path d="M1152.14 597.303C1162.35 597.303 1170.62 589.029 1170.62 578.822C1170.62 568.615 1162.35 560.341 1152.14 560.341C1141.93 560.341 1133.65 568.615 1133.65 578.822C1133.65 589.029 1141.93 597.303 1152.14 597.303Z" fill="#FFC0C6"/>
<path d="M1150.32 576.809C1150.18 576.142 1149.86 575.528 1149.39 575.032C1148.93 574.537 1148.33 574.181 1147.67 574.003C1147.16 573.963 1146.65 573.89 1146.15 573.784C1144.41 573.19 1144.45 570.53 1142.96 569.466C1141.82 568.663 1140.26 569.081 1139.02 569.685C1137.77 570.29 1136.52 571.104 1135.15 571.031C1134.29 570.919 1133.48 570.535 1132.86 569.934C1132.23 569.334 1131.81 568.549 1131.66 567.693C1131.4 565.97 1131.73 564.21 1132.6 562.698C1135.38 557.253 1141.19 554.135 1146.81 551.757C1149.25 550.624 1151.83 549.841 1154.49 549.431C1157.16 549.028 1159.89 549.61 1162.17 551.069C1162.89 551.569 1163.52 552.174 1164.26 552.643C1164.99 553.073 1165.74 553.459 1166.51 553.801C1173.94 557.525 1177.81 566.869 1175.78 574.932C1175.07 577.737 1173.69 580.376 1173.26 583.223C1173.2 583.996 1173 584.752 1172.68 585.455C1171.73 587.124 1169.42 587.28 1167.46 587.228C1166.94 587.273 1166.42 587.149 1165.97 586.873C1165.56 586.465 1165.3 585.933 1165.23 585.361C1164.46 582.232 1163.25 579.03 1160.71 577.017C1159.36 575.974 1157.17 575.432 1156.06 576.757C1155.62 577.456 1155.27 578.21 1155.02 578.999C1154.48 580.115 1152.81 581.377 1151.46 581.085C1149.57 580.637 1150.77 578.551 1150.32 576.809Z" fill="#3F3D56"/>
<path opacity="0.1" d="M1195.85 601.485C1193.62 601.225 1193.2 612.864 1190.95 612.874C1190.32 612.874 1190.43 610.423 1189.91 610.788C1189.39 611.153 1191.26 619.132 1190.95 619.758C1189.82 622.105 1192.08 612.134 1190.95 614.481C1189.46 617.547 1190.14 618.548 1189.37 621.875C1187.66 629.176 1179.13 634.474 1180.87 641.754C1182.88 649.72 1184.35 657.815 1185.27 665.982C1185.57 668.589 1185.62 671.22 1185.4 673.835C1184.81 679.509 1182.21 684.755 1179.59 689.834C1177.3 694.277 1174.96 698.7 1173.1 703.33C1172.5 704.456 1172.32 705.754 1172.57 707.001C1173.35 709.348 1176.45 709.598 1178.83 710.276C1183.7 711.664 1187.87 716.534 1192.81 715.397C1195.02 708.681 1194.76 701.599 1196.69 694.788C1198.67 687.811 1203.3 681.741 1204.81 674.649C1205.33 671.716 1205.58 668.742 1205.56 665.763L1206.29 632.858C1206.38 630.902 1206.32 628.941 1206.09 626.996C1205.73 624.998 1205.2 623.034 1204.51 621.124L1200.7 609.652C1199.69 606.585 1198.99 601.861 1195.85 601.485Z" fill="black"/>
<path d="M1197.43 601.485C1195.21 601.225 1192.97 601.099 1190.72 601.11C1190.07 601 1189.4 601.139 1188.84 601.5C1188.28 601.861 1187.88 602.417 1187.71 603.06L1184.3 610.079C1182.7 613.097 1181.44 616.279 1180.53 619.57C1178.82 626.871 1180.72 634.453 1182.45 641.733C1184.47 649.699 1185.94 657.794 1186.85 665.961C1187.16 668.568 1187.21 671.199 1186.99 673.815C1186.39 679.488 1183.8 684.734 1181.18 689.814C1178.88 694.257 1176.55 698.679 1174.68 703.309C1174.08 704.434 1173.9 705.734 1174.16 706.981C1174.93 709.327 1178.04 709.578 1180.42 710.256C1185.29 711.643 1189.45 716.513 1194.4 715.376C1196.61 708.66 1196.35 701.578 1198.28 694.768C1200.26 687.79 1204.89 681.72 1206.39 674.628C1206.91 671.695 1207.16 668.721 1207.14 665.742L1207.86 632.837C1207.97 630.881 1207.9 628.919 1207.66 626.975C1207.31 624.976 1206.79 623.012 1206.1 621.103L1202.28 609.631C1201.28 606.585 1200.57 601.861 1197.43 601.485Z" fill="#3F3D56"/>
</g>
<defs>
<clipPath id="clip0_3_31">
<rect width="1187" height="773" fill="white" transform="translate(127 126)"/>
</clipPath>
</defs>
</svg>
